<svg width="755" height="414" fill="none" xmlns="http://www.w3.org/2000/svg"><path fill-rule="evenodd" clip-rule="evenodd" d="M46.883 364.96v4.16h697.52V202.561C507.443 266 278.243 315.36 46.883 364.96Z" fill="url(#a)"/><path fill-rule="evenodd" clip-rule="evenodd" d="M46.64 70.8v298.32h.24v-4.16c231.361-49.6 460.481-98.96 697.441-162.399V86.48c-232 83.36-471.52 160.159-697.44 216.96V70.8h-.24Z" fill="url(#b)"/><path fill-rule="evenodd" clip-rule="evenodd" d="M46.883 3.44v164.88c122.96-50.88 240.96-104.48 359.68-164.88H46.883Z" fill="url(#c)"/><path d="M744.403 202.56c-236.96 63.44-466.16 112.8-697.52 162.4" stroke="#00AEEF" stroke-width="1.6"/><path fill-rule="evenodd" clip-rule="evenodd" d="M406.563 3.44c-118.72 60.4-236.72 114-359.68 164.88v135.12c225.92-56.801 465.52-133.6 697.52-216.96V3.44h-337.84Z" fill="url(#d)"/><path d="M744.323 86.48c-232 83.36-471.52 160.16-697.44 216.96" stroke="#8DCD3F" stroke-width="1.6"/><path d="M404.803 4.24c-118.72 60.4-234.96 113.2-357.92 164.08" stroke="#FA571D" stroke-width="1.6" stroke-linecap="round" stroke-linejoin="round"/><mask id="e" style="mask-type:alpha" maskUnits="userSpaceOnUse" x="46" y="369" width="2" height="7"><path fill-rule="evenodd" clip-rule="evenodd" d="M46.398 369.121h.8v6.719h-.8v-6.719Z" fill="#fff"/></mask><g mask="url(#e)"><path d="M46.798 375.84v-6.719" stroke="#4A4A4A" stroke-width=".8"/></g><mask id="f" style="mask-type:alpha" maskUnits="userSpaceOnUse" x="104" y="369" width="2" height="7"><path fill-rule="evenodd" clip-rule="evenodd" d="M104.531 369.121h.8v6.719h-.8v-6.719Z" fill="#fff"/></mask><g mask="url(#f)"><path d="M104.931 375.84v-6.719" stroke="#4A4A4A" stroke-width=".8"/></g><mask id="g" style="mask-type:alpha" maskUnits="userSpaceOnUse" x="162" y="369" width="2" height="7"><path fill-rule="evenodd" clip-rule="evenodd" d="M162.664 369.121h.8v6.719h-.8v-6.719Z" fill="#fff"/></mask><g mask="url(#g)"><path d="M163.064 375.84v-6.719" stroke="#4A4A4A" stroke-width=".8"/></g><mask id="h" style="mask-type:alpha" maskUnits="userSpaceOnUse" x="220" y="369" width="2" height="7"><path fill-rule="evenodd" clip-rule="evenodd" d="M220.875 369.121h.8v6.719h-.8v-6.719Z" fill="#fff"/></mask><g mask="url(#h)"><path d="M221.275 375.84v-6.719" stroke="#4A4A4A" stroke-width=".8"/></g><mask id="i" style="mask-type:alpha" maskUnits="userSpaceOnUse" x="278" y="369" width="2" height="7"><path fill-rule="evenodd" clip-rule="evenodd" d="M278.844 369.121h.8v6.719h-.8v-6.719Z" fill="#fff"/></mask><g mask="url(#i)"><path d="M279.244 375.84v-6.719" stroke="#4A4A4A" stroke-width=".8"/></g><mask id="j" style="mask-type:alpha" maskUnits="userSpaceOnUse" x="336" y="369" width="2" height="7"><path fill-rule="evenodd" clip-rule="evenodd" d="M336.977 369.121h.8v6.719h-.8v-6.719Z" fill="#fff"/></mask><g mask="url(#j)"><path d="M337.377 375.84v-6.719" stroke="#4A4A4A" stroke-width=".8"/></g><mask id="k" style="mask-type:alpha" maskUnits="userSpaceOnUse" x="395" y="369" width="1" height="7"><path fill-rule="evenodd" clip-rule="evenodd" d="M395.109 369.121h.8v6.719h-.8v-6.719Z" fill="#fff"/></mask><g mask="url(#k)"><path d="M395.509 375.84v-6.719" stroke="#4A4A4A" stroke-width=".8"/></g><mask id="l" style="mask-type:alpha" maskUnits="userSpaceOnUse" x="453" y="369" width="2" height="7"><path fill-rule="evenodd" clip-rule="evenodd" d="M453.242 369.121h.8v6.719h-.8v-6.719Z" fill="#fff"/></mask><g mask="url(#l)"><path d="M453.642 375.84v-6.719" stroke="#4A4A4A" stroke-width=".8"/></g><mask id="m" style="mask-type:alpha" maskUnits="userSpaceOnUse" x="511" y="369" width="2" height="7"><path fill-rule="evenodd" clip-rule="evenodd" d="M511.297 369.121h.8v6.719h-.8v-6.719Z" fill="#fff"/></mask><g mask="url(#m)"><path d="M511.697 375.84v-6.719" stroke="#4A4A4A" stroke-width=".8"/></g><mask id="n" style="mask-type:alpha" maskUnits="userSpaceOnUse" x="569" y="369" width="2" height="7"><path fill-rule="evenodd" clip-rule="evenodd" d="M569.508 369.121h.799v6.719h-.799v-6.719Z" fill="#fff"/></mask><g mask="url(#n)"><path d="M569.908 375.84v-6.719" stroke="#4A4A4A" stroke-width=".8"/></g><mask id="o" style="mask-type:alpha" maskUnits="userSpaceOnUse" x="627" y="369" width="2" height="7"><path fill-rule="evenodd" clip-rule="evenodd" d="M627.719 369.121h.8v6.719h-.8v-6.719Z" fill="#fff"/></mask><g mask="url(#o)"><path d="M628.119 375.84v-6.719" stroke="#4A4A4A" stroke-width=".8"/></g><mask id="p" style="mask-type:alpha" maskUnits="userSpaceOnUse" x="685" y="369" width="2" height="7"><path fill-rule="evenodd" clip-rule="evenodd" d="M685.852 369.121h.799v6.719h-.799v-6.719Z" fill="#fff"/></mask><g mask="url(#p)"><path d="M686.252 375.84v-6.719" stroke="#4A4A4A" stroke-width=".8"/></g><path fill-rule="evenodd" clip-rule="evenodd" d="M272.929 390.773v-9.649c-.01.009-.118.038-.324.087-.207.047-.439.096-.699.144-.259.047-.489.091-.691.13-.201.037-.307.057-.317.057v-1.166a8.307 8.307 0 0 0 1.232-.403c.225-.096.441-.217.648-.36.206-.145.381-.313.525-.504h1.167v11.664h-1.541Zm4.578 0 2.102-10.455h-3.125v-1.209h4.666v.748l-2.16 10.916h-1.483Zm7.95-1.138c.365 0 .641-.106.828-.317.187-.211.317-.482.389-.813.072-.332.108-.676.108-1.03v-5.056c0-.373-.034-.726-.101-1.058-.067-.331-.194-.597-.382-.799-.187-.201-.468-.302-.842-.302-.375 0-.658.101-.85.302-.192.202-.321.468-.388.799a5.27 5.27 0 0 0-.101 1.058v5.056c0 .354.036.698.108 1.03.072.331.206.602.403.813.197.211.473.317.828.317Zm0 1.267c-.663 0-1.207-.149-1.635-.448a2.637 2.637 0 0 1-.95-1.223c-.206-.518-.31-1.109-.31-1.771v-5.025c0-.682.101-1.28.303-1.793.202-.514.516-.915.943-1.202.427-.288.977-.432 1.649-.432s1.219.144 1.641.432c.423.287.735.688.937 1.202.201.513.302 1.111.302 1.793v5.025c0 .672-.103 1.267-.31 1.786a2.61 2.61 0 0 1-.943 1.216c-.422.293-.965.44-1.627.44Zm-71.145-.129v-9.649c-.01.009-.118.038-.324.087-.207.047-.44.096-.699.144-.259.047-.489.091-.691.13-.202.037-.307.057-.317.057v-1.166c.163-.039.353-.091.569-.159.216-.066.437-.149.662-.244.226-.096.442-.217.648-.36.207-.145.382-.313.526-.504h1.166v11.664h-1.54Zm6.936-1.153c.346 0 .615-.097.807-.294.192-.197.329-.459.41-.787.082-.326.123-.68.123-1.065 0-.461-.022-.887-.065-1.28-.043-.394-.156-.708-.339-.945-.182-.235-.494-.351-.936-.351-.211 0-.403.038-.576.113a1.62 1.62 0 0 0-.748.679v1.742c0 .394.04.759.122 1.095.082.336.218.602.41.799.192.197.456.294.792.294Zm0 1.283c-.672 0-1.219-.171-1.641-.512-.423-.34-.732-.801-.929-1.384a5.992 5.992 0 0 1-.295-1.936v-3.932c0-.758.086-1.448.259-2.072.173-.625.468-1.124.886-1.497.417-.375.991-.563 1.72-.563.605 0 1.116.111 1.534.331.418.222.739.542.965.965.225.424.343.936.353 1.54 0 .021.002.048.007.081a.629.629 0 0 1 .007.093h-1.555c0-.566-.091-.998-.274-1.296-.182-.297-.528-.447-1.037-.447-.278 0-.518.09-.72.266-.201.179-.352.451-.453.815-.101.365-.151.836-.151 1.412v1.77c.153-.239.372-.434.655-.583.283-.15.631-.223 1.044-.223.643 0 1.147.14 1.512.416.365.28.624.671.777 1.175.154.505.231 1.097.231 1.779 0 .701-.096 1.338-.288 1.914-.192.577-.499 1.036-.922 1.376-.422.341-.984.512-1.685.512Zm7.043-.016c-.701 0-1.257-.133-1.67-.403-.413-.269-.708-.657-.886-1.166-.177-.51-.266-1.114-.266-1.814h1.541c0 .344.028.683.086 1.015.058.33.18.605.367.82.187.216.473.325.857.325.422 0 .725-.124.907-.367.183-.246.298-.577.346-.994.048-.418.072-.892.072-1.419s-.029-.977-.087-1.346c-.057-.369-.177-.653-.36-.85-.182-.196-.47-.294-.864-.294-.316 0-.585.098-.806.294a1.86 1.86 0 0 0-.49.671h-1.31v-6.252h5.026v1.541h-3.629l-.101 3.226c.192-.202.43-.36.713-.474.283-.116.607-.173.972-.173.633 0 1.13.148 1.49.445.36.299.615.706.763 1.226.149.517.224 1.112.224 1.784 0 .595-.044 1.151-.13 1.663-.086.515-.238.96-.454 1.34-.216.38-.511.675-.885.886-.375.21-.85.316-1.426.316Zm-72.378-.114v-9.649a2.355 2.355 0 0 1-.324.087c-.206.047-.439.096-.698.144-.259.047-.49.091-.691.13-.202.037-.308.057-.317.057v-1.166c.163-.039.353-.091.569-.159.216-.066.436-.149.662-.244.226-.096.442-.217.648-.36.206-.145.382-.313.526-.504h1.166v11.664h-1.541Zm6.945-1.153c.345 0 .614-.097.806-.294.192-.197.329-.459.411-.787.081-.326.122-.68.122-1.065 0-.461-.022-.887-.065-1.28-.043-.394-.156-.708-.338-.945-.183-.235-.495-.351-.936-.351a1.433 1.433 0 0 0-1.023.409 1.747 1.747 0 0 0-.302.383v1.742c0 .394.041.759.122 1.095.082.336.219.602.411.799.192.197.456.294.792.294Zm0 1.283c-.672 0-1.219-.171-1.642-.512-.422-.34-.732-.801-.929-1.384a6.02 6.02 0 0 1-.295-1.936v-3.932c0-.758.087-1.448.259-2.072.173-.625.468-1.124.886-1.497.418-.375.991-.563 1.721-.563.605 0 1.116.111 1.533.331.418.222.74.542.965.965.226.424.343.936.353 1.54 0 .021.002.048.007.081a.629.629 0 0 1 .007.093h-1.555c0-.566-.091-.998-.273-1.296-.183-.297-.528-.447-1.037-.447-.279 0-.519.09-.72.266-.202.179-.353.451-.454.815-.101.365-.151.836-.151 1.412v1.77c.154-.239.372-.434.655-.583.283-.15.631-.223 1.044-.223.643 0 1.147.14 1.512.416.365.28.624.671.778 1.175.153.505.23 1.097.23 1.779 0 .701-.096 1.338-.288 1.914-.192.577-.499 1.036-.921 1.376-.423.341-.984.512-1.685.512Zm7.271-1.268c.365 0 .641-.106.828-.317.187-.211.317-.482.389-.813.072-.332.108-.676.108-1.03v-5.056c0-.373-.034-.726-.101-1.058-.067-.331-.195-.597-.382-.799-.187-.201-.468-.302-.842-.302-.375 0-.658.101-.85.302-.192.202-.321.468-.389.799-.067.332-.1.685-.1 1.058v5.056c0 .354.036.698.108 1.03.072.331.206.602.403.813.197.211.473.317.828.317Zm0 1.267c-.663 0-1.207-.149-1.635-.448a2.63 2.63 0 0 1-.95-1.223c-.206-.518-.31-1.109-.31-1.771v-5.025c0-.682.101-1.28.303-1.793.201-.514.516-.915.943-1.202.427-.288.977-.432 1.649-.432s1.219.144 1.641.432c.423.287.735.688.936 1.202.202.513.303 1.111.303 1.793v5.025c0 .672-.103 1.267-.31 1.786a2.61 2.61 0 0 1-.943 1.216c-.422.293-.965.44-1.627.44Zm-71.911-.129v-9.649a2.42 2.42 0 0 1-.324.087c-.207.047-.44.096-.699.144-.259.047-.49.091-.69.13-.202.037-.308.057-.317.057v-1.166a8.433 8.433 0 0 0 1.23-.403c.226-.096.442-.217.649-.36.206-.145.381-.313.525-.504h1.167v11.664h-1.541Zm6.737.114c-.701 0-1.257-.133-1.67-.403-.413-.269-.708-.657-.886-1.166-.177-.51-.266-1.114-.266-1.814h1.541c0 .344.028.683.086 1.015.058.33.18.605.367.82.187.216.473.325.857.325.422 0 .725-.124.907-.367.183-.246.298-.577.346-.994.048-.418.072-.892.072-1.419s-.029-.977-.087-1.346c-.057-.369-.177-.653-.36-.85-.182-.196-.47-.294-.864-.294-.316 0-.585.098-.806.294a1.86 1.86 0 0 0-.49.671h-1.31v-6.252h5.026v1.541h-3.629l-.101 3.226c.192-.202.43-.36.713-.474.283-.116.607-.173.972-.173.633 0 1.13.148 1.49.445.36.299.615.706.763 1.226.149.517.224 1.112.224 1.784 0 .595-.044 1.151-.13 1.663-.086.515-.238.96-.454 1.34-.216.38-.511.675-.885.886-.375.21-.85.316-1.426.316Zm6.86 0c-.701 0-1.258-.133-1.671-.403-.413-.269-.708-.657-.885-1.166-.178-.51-.267-1.114-.267-1.814h1.541c0 .344.029.683.086 1.015.058.33.18.605.368.82.187.216.472.325.856.325.423 0 .725-.124.908-.367.182-.246.297-.577.345-.994.048-.418.072-.892.072-1.419s-.029-.977-.086-1.346c-.058-.369-.178-.653-.36-.85-.183-.196-.471-.294-.864-.294-.317 0-.586.098-.807.294-.22.197-.384.419-.489.671h-1.311v-6.252h5.026v1.541h-3.629l-.101 3.226c.192-.202.43-.36.713-.474.283-.116.607-.173.972-.173.634 0 1.131.148 1.491.445.36.299.614.706.763 1.226.149.517.223 1.112.223 1.784 0 .595-.043 1.151-.13 1.663-.086.515-.237.96-.453 1.34a2.3 2.3 0 0 1-.886.886c-.374.21-.849.316-1.425.316Zm219.504-.114v-9.649a2.355 2.355 0 0 1-.324.087c-.206.047-.439.096-.698.144-.259.047-.49.091-.691.13-.202.037-.307.057-.317.057v-1.166c.163-.039.353-.091.569-.159.216-.066.437-.149.662-.244.226-.096.442-.217.648-.36.207-.145.382-.313.526-.504h1.166v11.664h-1.541Zm4.578 0L338 380.318h-3.125v-1.209h4.666v.748l-2.16 10.916h-1.484Zm7.722.114c-.701 0-1.257-.133-1.67-.403-.413-.269-.708-.657-.886-1.166-.177-.51-.266-1.114-.266-1.814h1.541c0 .344.028.683.086 1.015.058.33.18.605.367.82.187.216.473.325.857.325.422 0 .725-.124.907-.367.183-.246.298-.577.346-.994.048-.418.072-.892.072-1.419s-.029-.977-.087-1.346c-.057-.369-.177-.653-.36-.85-.182-.196-.47-.294-.864-.294-.316 0-.585.098-.806.294a1.86 1.86 0 0 0-.49.671h-1.31v-6.252h5.026v1.541h-3.629l-.101 3.226c.192-.202.43-.36.713-.474.283-.116.607-.173.972-.173.633 0 1.13.148 1.49.445.36.299.615.706.763 1.226.149.517.224 1.112.224 1.784 0 .595-.044 1.151-.13 1.663-.086.515-.238.96-.454 1.34-.216.38-.511.675-.885.886-.375.21-.85.316-1.426.316Zm-303.792-.114v-9.649a2.42 2.42 0 0 1-.324.087c-.206.047-.439.096-.698.144-.26.047-.49.091-.691.13-.202.037-.307.057-.317.057v-1.166a8.433 8.433 0 0 0 1.231-.403c.226-.096.442-.217.648-.36.206-.145.382-.313.526-.504h1.166v11.664h-1.54Zm6.738.114c-.701 0-1.258-.133-1.67-.403-.414-.269-.709-.657-.886-1.166-.178-.51-.267-1.114-.267-1.814h1.541c0 .344.029.683.086 1.015.058.33.18.605.368.82.187.216.472.325.856.325.423 0 .725-.124.908-.367.182-.246.297-.577.345-.994.048-.418.072-.892.072-1.419s-.029-.977-.086-1.346c-.058-.369-.178-.653-.36-.85-.183-.196-.47-.294-.864-.294-.317 0-.586.098-.807.294a1.87 1.87 0 0 0-.49.671h-1.31v-6.252h5.026v1.541h-3.629l-.1 3.226c.191-.202.429-.36.712-.474.283-.116.607-.173.972-.173.634 0 1.13.148 1.49.445.36.299.615.706.764 1.226.149.517.223 1.112.223 1.784 0 .595-.043 1.151-.13 1.663a4.04 4.04 0 0 1-.453 1.34 2.3 2.3 0 0 1-.886.886c-.374.21-.85.316-1.425.316Zm7.079-1.252c.365 0 .641-.106.828-.317.188-.211.317-.482.39-.813.071-.332.107-.676.107-1.03v-5.056a5.33 5.33 0 0 0-.1-1.058c-.068-.331-.195-.597-.382-.799-.187-.201-.468-.302-.843-.302-.374 0-.657.101-.85.302-.191.202-.32.468-.388.799a5.33 5.33 0 0 0-.1 1.058v5.056c0 .354.035.698.107 1.03.072.331.207.602.403.813.197.211.473.317.828.317Zm0 1.267c-.662 0-1.207-.149-1.634-.448a2.632 2.632 0 0 1-.95-1.223c-.207-.518-.31-1.109-.31-1.771v-5.025c0-.682.1-1.28.302-1.793.202-.514.516-.915.944-1.202.427-.288.976-.432 1.648-.432.672 0 1.22.144 1.642.432.422.287.734.688.936 1.202.202.513.302 1.111.302 1.793v5.025c0 .672-.103 1.267-.31 1.786a2.61 2.61 0 0 1-.942 1.216c-.423.293-.965.44-1.628.44Zm334.824-.129v-9.649c-.01.009-.118.038-.324.087-.206.047-.439.096-.698.144-.26.047-.49.091-.692.13-.201.037-.307.057-.316.057v-1.166a8.457 8.457 0 0 0 1.231-.403c.225-.096.441-.217.648-.36.206-.145.381-.313.525-.504h1.167v11.664h-1.541Zm6.842-6.855c.326-.01.573-.111.741-.303.168-.191.286-.439.353-.742.067-.302.101-.615.101-.941 0-.481-.086-.89-.259-1.226-.173-.336-.485-.504-.936-.504-.45 0-.768.168-.95.504-.183.336-.274.745-.274 1.226 0 .326.033.639.101.941.067.303.189.551.367.742.177.192.429.293.756.303Zm0 5.759c.374 0 .662-.096.864-.286.201-.192.338-.453.41-.779.073-.325.109-.691.109-1.094 0-.364-.042-.709-.123-1.03a1.706 1.706 0 0 0-.425-.791c-.202-.206-.48-.31-.835-.31-.356 0-.636.101-.843.303a1.677 1.677 0 0 0-.439.783c-.086.323-.13.67-.13 1.045 0 .403.039.769.116 1.094.077.326.218.587.424.779.207.19.497.286.872.286Zm0 1.224c-.701 0-1.263-.137-1.684-.417-.424-.279-.728-.675-.916-1.187-.186-.514-.28-1.117-.28-1.807 0-.394.033-.741.1-1.038a2.84 2.84 0 0 1 .296-.784c.13-.227.283-.424.461-.592.177-.168.372-.317.583-.452a3.008 3.008 0 0 1-.936-1.016c-.24-.416-.36-.947-.36-1.591 0-.615.096-1.148.288-1.598.192-.451.492-.799.9-1.045.408-.243.924-.367 1.548-.367s1.135.124 1.533.367c.399.246.694.594.886 1.045.192.45.288.983.288 1.598 0 .652-.118 1.185-.353 1.598-.235.414-.55.75-.942 1.009.21.135.404.284.582.452.178.168.331.365.461.592.129.226.23.488.302.784.072.297.108.644.108 1.038 0 .69-.093 1.293-.281 1.807-.187.512-.489.908-.906 1.187-.418.28-.978.417-1.678.417Zm7.311-1.266c.364 0 .641-.106.827-.317.188-.211.318-.482.39-.813.071-.332.107-.676.107-1.03v-5.056c0-.373-.034-.726-.101-1.058-.067-.331-.193-.597-.381-.799-.188-.201-.468-.302-.842-.302-.375 0-.658.101-.85.302-.192.202-.322.468-.389.799a5.344 5.344 0 0 0-.101 1.058v5.056c0 .354.037.698.109 1.03.072.331.206.602.403.813.197.211.473.317.828.317Zm0 1.267c-.662 0-1.208-.149-1.634-.448a2.626 2.626 0 0 1-.951-1.223c-.206-.518-.309-1.109-.309-1.771v-5.025c0-.682.1-1.28.302-1.793a2.51 2.51 0 0 1 .942-1.202c.428-.288.977-.432 1.65-.432.672 0 1.218.144 1.642.432.421.287.734.688.936 1.202.201.513.302 1.111.302 1.793v5.025c0 .672-.103 1.267-.31 1.786-.207.518-.52.924-.944 1.216-.421.293-.964.44-1.626.44Zm44.238-.129v-9.649a2.526 2.526 0 0 1-.324.087c-.207.047-.44.096-.699.144-.261.047-.49.091-.692.13-.201.037-.306.057-.316.057v-1.166c.163-.039.352-.091.569-.159.215-.066.437-.149.662-.244a3.65 3.65 0 0 0 .648-.36c.206-.145.382-.313.526-.504h1.166v11.664h-1.54Zm6.842-6.855c.326-.01.574-.111.742-.303.168-.191.285-.439.353-.742.066-.302.1-.615.1-.941 0-.481-.086-.89-.259-1.226-.173-.336-.485-.504-.936-.504-.451 0-.768.168-.95.504-.183.336-.274.745-.274 1.226 0 .326.034.639.101.941.067.303.19.551.367.742.177.192.43.293.756.303Zm0 5.759c.375 0 .663-.096.864-.286.202-.192.339-.453.411-.779.072-.325.108-.691.108-1.094a4.16 4.16 0 0 0-.123-1.03 1.697 1.697 0 0 0-.425-.791c-.201-.206-.48-.31-.835-.31s-.636.101-.843.303a1.686 1.686 0 0 0-.439.783c-.086.323-.13.67-.13 1.045 0 .403.039.769.116 1.094.077.326.218.587.425.779.206.19.497.286.871.286Zm0 1.224c-.701 0-1.262-.137-1.685-.417a2.328 2.328 0 0 1-.914-1.187c-.187-.514-.282-1.117-.282-1.807 0-.394.034-.741.101-1.038a2.81 2.81 0 0 1 .296-.784c.13-.227.283-.424.461-.592.177-.168.372-.317.583-.452a3.01 3.01 0 0 1-.937-1.016c-.24-.416-.359-.947-.359-1.591 0-.615.095-1.148.287-1.598.193-.451.493-.799.9-1.045.408-.243.925-.367 1.549-.367.623 0 1.135.124 1.534.367.398.246.693.594.884 1.045.193.45.289.983.289 1.598 0 .652-.118 1.185-.353 1.598-.236.414-.549.75-.943 1.009.211.135.406.284.584.452.177.168.331.365.46.592.128.226.23.488.302.784.073.297.109.644.109 1.038 0 .69-.094 1.293-.283 1.807a2.34 2.34 0 0 1-.905 1.187c-.418.28-.977.417-1.678.417Zm7.082-.014c-.701 0-1.258-.133-1.671-.403-.413-.269-.708-.657-.885-1.166-.178-.51-.266-1.114-.266-1.814h1.539c0 .344.031.683.087 1.015.058.33.18.605.368.82.187.216.472.325.856.325.422 0 .725-.124.908-.367.181-.246.297-.577.346-.994.047-.418.071-.892.071-1.419s-.029-.977-.086-1.346c-.057-.369-.178-.653-.36-.85-.183-.196-.471-.294-.863-.294-.318 0-.587.098-.808.294-.22.197-.384.419-.488.671h-1.312v-6.252h5.026v1.541h-3.629l-.101 3.226c.192-.202.43-.36.714-.474.282-.116.606-.173.971-.173.633 0 1.131.148 1.491.445.36.299.614.706.763 1.226.149.517.223 1.112.223 1.784 0 .595-.044 1.151-.13 1.663a4.03 4.03 0 0 1-.452 1.34 2.31 2.31 0 0 1-.887.886c-.375.21-.849.316-1.425.316Zm43.927-.114v-9.649c-.01.009-.118.038-.324.087-.206.047-.439.096-.698.144-.26.047-.49.091-.692.13-.202.037-.307.057-.316.057v-1.166a8.457 8.457 0 0 0 1.231-.403 3.73 3.73 0 0 0 .649-.36 2.35 2.35 0 0 0 .524-.504h1.167v11.664h-1.541Zm6.77-5.775c.336 0 .61-.084.821-.252.211-.168.375-.353.49-.555v-1.727c0-.404-.039-.771-.115-1.102-.078-.331-.212-.595-.404-.792-.192-.196-.456-.295-.792-.295s-.602.101-.799.303a1.682 1.682 0 0 0-.417.784 4.276 4.276 0 0 0-.123 1.057c0 .463.023.89.065 1.283.043.393.158.708.346.944.187.235.496.352.928.352Zm0 5.904c-.604 0-1.12-.114-1.548-.338a2.248 2.248 0 0 1-.972-.986c-.22-.432-.336-.956-.345-1.57v-.13h1.541c0 .557.091.987.274 1.289.182.303.537.452 1.066.452.287 0 .527-.087.719-.266.192-.176.336-.45.432-.819.096-.37.144-.839.144-1.405v-1.771a1.6 1.6 0 0 1-.641.584c-.283.148-.636.223-1.058.223-.644 0-1.148-.143-1.512-.425-.365-.284-.622-.678-.771-1.182-.149-.504-.223-1.091-.223-1.764 0-.711.096-1.35.288-1.921.192-.571.502-1.025.929-1.361.427-.336.986-.504 1.677-.504.672 0 1.218.17 1.642.51.422.341.732.799.929 1.376.197.576.295 1.22.295 1.929v3.918c0 .748-.086 1.44-.259 2.073-.173.634-.466 1.14-.879 1.52-.412.379-.988.568-1.728.568Zm7.43-1.267c.365 0 .641-.106.828-.317.188-.211.317-.482.389-.813.072-.332.108-.676.108-1.03v-5.056c0-.373-.034-.726-.101-1.058-.067-.331-.194-.597-.382-.799-.187-.201-.468-.302-.842-.302-.374 0-.658.101-.85.302-.192.202-.321.468-.388.799a5.27 5.27 0 0 0-.101 1.058v5.056c0 .354.036.698.108 1.03.072.331.206.602.403.813.197.211.473.317.828.317Zm0 1.267c-.662 0-1.207-.149-1.634-.448a2.624 2.624 0 0 1-.95-1.223c-.207-.518-.31-1.109-.31-1.771v-5.025c0-.682.1-1.28.302-1.793.202-.514.516-.915.943-1.202.427-.288.977-.432 1.649-.432s1.219.144 1.642.432c.422.287.734.688.936 1.202.202.513.303 1.111.303 1.793v5.025c0 .672-.104 1.267-.311 1.786-.206.518-.52.924-.943 1.216-.422.293-.965.44-1.627.44Zm44.199-.129v-9.649c-.01.009-.118.038-.324.087-.207.047-.44.096-.699.144-.259.047-.489.091-.691.13-.202.037-.307.057-.317.057v-1.166c.163-.039.353-.091.569-.159.216-.066.437-.149.662-.244.226-.096.442-.217.649-.36.206-.145.381-.313.525-.504h1.166v11.664h-1.54Zm6.762-5.775c.336 0 .61-.084.821-.252.211-.168.374-.353.489-.555v-1.727c0-.404-.038-.771-.115-1.102-.077-.331-.212-.595-.403-.792-.192-.196-.456-.295-.792-.295s-.602.101-.799.303a1.693 1.693 0 0 0-.418.784 4.326 4.326 0 0 0-.122 1.057c0 .463.022.89.065 1.283.043.393.157.708.345.944.187.235.497.352.929.352Zm0 5.904c-.605 0-1.121-.114-1.548-.338a2.248 2.248 0 0 1-.972-.986c-.221-.432-.336-.956-.346-1.57v-.13h1.541c0 .557.091.987.275 1.289.181.303.536.452 1.065.452.287 0 .527-.087.719-.266.192-.176.336-.45.432-.819.096-.37.144-.839.144-1.405v-1.771c-.144.24-.358.434-.64.584-.284.148-.636.223-1.059.223-.643 0-1.147-.143-1.512-.425-.365-.284-.621-.678-.77-1.182-.149-.504-.223-1.091-.223-1.764 0-.711.096-1.35.288-1.921.192-.571.501-1.025.928-1.361.428-.336.987-.504 1.678-.504.672 0 1.218.17 1.642.51.422.341.732.799.928 1.376a5.94 5.94 0 0 1 .296 1.929v3.918a7.85 7.85 0 0 1-.26 2.073c-.172.634-.465 1.14-.878 1.52-.413.379-.989.568-1.728.568Zm7.201-.015c-.701 0-1.258-.133-1.671-.403-.413-.269-.708-.657-.885-1.166-.178-.51-.266-1.114-.266-1.814h1.539c0 .344.031.683.087 1.015.058.33.18.605.368.82.187.216.472.325.856.325.422 0 .725-.124.908-.367.181-.246.297-.577.346-.994.047-.418.071-.892.071-1.419s-.029-.977-.086-1.346c-.057-.369-.178-.653-.36-.85-.183-.196-.471-.294-.863-.294-.318 0-.587.098-.808.294-.22.197-.384.419-.488.671h-1.312v-6.252h5.026v1.541h-3.629l-.101 3.226c.192-.202.43-.36.714-.474.282-.116.606-.173.971-.173.633 0 1.131.148 1.491.445.36.299.614.706.763 1.226.149.517.223 1.112.223 1.784 0 .595-.044 1.151-.13 1.663a4.03 4.03 0 0 1-.452 1.34 2.31 2.31 0 0 1-.887.886c-.375.21-.849.316-1.425.316Zm41.412-.114v-1.095l2.967-4.622c.22-.346.425-.667.612-.966.187-.297.339-.611.461-.942.12-.331.18-.714.18-1.146 0-.537-.087-.959-.26-1.267-.172-.307-.475-.46-.907-.46-.365 0-.648.101-.849.302a1.616 1.616 0 0 0-.418.792 4.572 4.572 0 0 0-.115 1.052v.388h-1.541v-.403c0-.701.094-1.304.281-1.808a2.35 2.35 0 0 1 .906-1.173c.419-.278.973-.417 1.664-.417.941 0 1.642.266 2.103.799.46.533.691 1.27.691 2.21 0 .5-.06.936-.18 1.31s-.277.726-.468 1.052c-.192.326-.403.662-.634 1.008l-2.678 4.09h3.686v1.296h-5.501Zm10.02-1.138c.364 0 .641-.106.827-.317.188-.211.318-.482.39-.813.071-.332.107-.676.107-1.03v-5.056c0-.373-.034-.726-.101-1.058-.067-.331-.194-.597-.381-.799-.188-.201-.468-.302-.842-.302-.375 0-.658.101-.85.302-.193.202-.322.468-.389.799a5.27 5.27 0 0 0-.101 1.058v5.056c0 .354.037.698.109 1.03.072.331.206.602.403.813.197.211.473.317.828.317Zm0 1.267c-.663 0-1.208-.149-1.635-.448a2.63 2.63 0 0 1-.95-1.223c-.206-.518-.31-1.109-.31-1.771v-5.025c0-.682.101-1.28.303-1.793.201-.514.515-.915.941-1.202.429-.288.978-.432 1.651-.432.672 0 1.218.144 1.641.432.422.287.735.688.936 1.202.202.513.303 1.111.303 1.793v5.025c0 .672-.103 1.267-.31 1.786-.207.518-.521.924-.944 1.216-.421.293-.964.44-1.626.44Zm7.445-1.267c.365 0 .641-.106.828-.317.188-.211.317-.482.389-.813.072-.332.108-.676.108-1.03v-5.056c0-.373-.034-.726-.101-1.058-.067-.331-.194-.597-.382-.799-.187-.201-.468-.302-.842-.302-.374 0-.658.101-.85.302-.192.202-.321.468-.388.799a5.27 5.27 0 0 0-.101 1.058v5.056c0 .354.036.698.108 1.03.072.331.206.602.403.813.197.211.473.317.828.317Zm0 1.267c-.662 0-1.207-.149-1.634-.448a2.624 2.624 0 0 1-.95-1.223c-.207-.518-.31-1.109-.31-1.771v-5.025c0-.682.1-1.28.302-1.793.202-.514.516-.915.942-1.202.428-.288.978-.432 1.65-.432.672 0 1.219.144 1.642.432.422.287.734.688.936 1.202.202.513.303 1.111.303 1.793v5.025c0 .672-.104 1.267-.311 1.786-.206.518-.52.924-.943 1.216-.422.293-.965.44-1.627.44Zm40.926-.129v-1.095l2.966-4.622c.22-.346.425-.667.612-.966.188-.297.34-.611.461-.942.12-.331.18-.714.18-1.146 0-.537-.086-.959-.259-1.267-.173-.307-.475-.46-.907-.46-.366 0-.648.101-.85.302a1.615 1.615 0 0 0-.417.792 4.57 4.57 0 0 0-.116 1.052v.388h-1.54v-.403c0-.701.093-1.304.28-1.808.188-.504.49-.894.907-1.173.418-.278.973-.417 1.664-.417.941 0 1.641.266 2.102.799.461.533.691 1.27.691 2.21 0 .5-.06.936-.18 1.31s-.276.726-.468 1.052c-.192.326-.403.662-.633 1.008l-2.679 4.09h3.687v1.296h-5.501Zm10.027-1.138c.364 0 .641-.106.827-.317.188-.211.318-.482.39-.813.071-.332.107-.676.107-1.03v-5.056a5.27 5.27 0 0 0-.101-1.058c-.067-.331-.193-.597-.38-.799-.188-.201-.468-.302-.843-.302-.375 0-.657.101-.849.302-.193.202-.323.468-.39.799a5.344 5.344 0 0 0-.101 1.058v5.056c0 .354.037.698.109 1.03.072.331.206.602.403.813.197.211.473.317.828.317Zm0 1.267c-.662 0-1.208-.149-1.634-.448a2.632 2.632 0 0 1-.951-1.223c-.206-.518-.309-1.109-.309-1.771v-5.025c0-.682.101-1.28.302-1.793a2.51 2.51 0 0 1 .942-1.202c.429-.288.977-.432 1.65-.432.672 0 1.219.144 1.642.432.421.287.734.688.936 1.202.201.513.302 1.111.302 1.793v5.025c0 .672-.103 1.267-.309 1.786-.208.518-.521.924-.944 1.216-.422.293-.964.44-1.627.44Zm7.209-.015c-.701 0-1.258-.133-1.671-.403-.413-.269-.708-.657-.885-1.166-.178-.51-.266-1.114-.266-1.814h1.54c0 .344.03.683.086 1.015.058.33.18.605.368.82.187.216.472.325.856.325.423 0 .725-.124.908-.367.182-.246.297-.577.346-.994.047-.418.071-.892.071-1.419s-.029-.977-.086-1.346c-.057-.369-.178-.653-.36-.85-.183-.196-.471-.294-.863-.294-.318 0-.587.098-.808.294-.22.197-.384.419-.488.671h-1.312v-6.252h5.026v1.541h-3.629l-.101 3.226c.192-.202.43-.36.714-.474.282-.116.606-.173.97-.173.635 0 1.132.148 1.492.445.36.299.614.706.763 1.226.149.517.223 1.112.223 1.784 0 .595-.043 1.151-.13 1.663a4.03 4.03 0 0 1-.452 1.34 2.31 2.31 0 0 1-.887.886c-.374.21-.849.316-1.425.316Zm41.412-.114v-1.095l2.967-4.622c.221-.346.425-.667.613-.966a4.95 4.95 0 0 0 .46-.942c.12-.331.18-.714.18-1.146 0-.537-.087-.959-.26-1.267-.172-.307-.475-.46-.907-.46-.365 0-.647.101-.849.302a1.624 1.624 0 0 0-.418.792 4.629 4.629 0 0 0-.114 1.052v.388h-1.542v-.403c0-.701.094-1.304.282-1.808a2.34 2.34 0 0 1 .906-1.173c.418-.278.972-.417 1.665-.417.939 0 1.64.266 2.101.799.461.533.692 1.27.692 2.21 0 .5-.06.936-.181 1.31a5.142 5.142 0 0 1-.468 1.052c-.192.326-.403.662-.634 1.008l-2.677 4.09h3.685v1.296h-5.501Zm8.75 0v-9.649c-.01.009-.118.038-.324.087-.207.047-.44.096-.699.144-.259.047-.489.091-.691.13-.202.037-.307.057-.317.057v-1.166c.163-.039.353-.091.569-.159.216-.066.437-.149.662-.244.226-.096.442-.217.649-.36.206-.145.381-.313.525-.504h1.166v11.664h-1.54Zm6.973-1.138c.365 0 .641-.106.828-.317.188-.211.317-.482.389-.813.072-.332.108-.676.108-1.03v-5.056c0-.373-.034-.726-.101-1.058-.067-.331-.194-.597-.382-.799-.187-.201-.468-.302-.842-.302-.374 0-.658.101-.85.302-.192.202-.321.468-.388.799a5.27 5.27 0 0 0-.101 1.058v5.056c0 .354.036.698.108 1.03.072.331.206.602.403.813.197.211.473.317.828.317Zm0 1.267c-.662 0-1.207-.149-1.634-.448a2.624 2.624 0 0 1-.95-1.223c-.207-.518-.31-1.109-.31-1.771v-5.025c0-.682.1-1.28.302-1.793.202-.514.516-.915.942-1.202.428-.288.978-.432 1.65-.432.672 0 1.219.144 1.642.432.422.287.734.688.936 1.202.202.513.303 1.111.303 1.793v5.025c0 .672-.104 1.267-.311 1.786-.206.518-.52.924-.943 1.216-.422.293-.965.44-1.627.44Z" fill="#4A4A4A"/><mask id="q" style="mask-type:alpha" maskUnits="userSpaceOnUse" x="743" y="369" width="2" height="7"><path fill-rule="evenodd" clip-rule="evenodd" d="M743.922 369.121h.8v6.719h-.8v-6.719Z" fill="#fff"/></mask><g mask="url(#q)"><path d="M744.322 375.84v-6.719" stroke="#4A4A4A" stroke-width=".8"/></g><path fill-rule="evenodd" clip-rule="evenodd" d="M20.562 12.458V2.81c-.01.01-.118.039-.324.087-.207.048-.44.096-.699.144-.259.048-.49.09-.691.13a7.932 7.932 0 0 1-.317.057V2.06a7.713 7.713 0 0 0 1.231-.403c.226-.096.442-.216.648-.36.207-.144.382-.312.526-.504h1.166v11.664h-1.54Zm6.664.13c-.633 0-1.161-.12-1.584-.36a2.266 2.266 0 0 1-.95-1.037c-.211-.451-.317-.984-.317-1.598v-.39h1.526v.26c.01.346.05.658.123.936.072.279.201.5.389.663.187.163.458.244.813.244.375 0 .658-.088.85-.267.192-.177.321-.429.389-.755.067-.327.1-.7.1-1.123 0-.615-.112-1.116-.338-1.505-.226-.389-.622-.603-1.188-.64A.346.346 0 0 0 26.931 7h-.108V5.46h.202c.547-.02.94-.163 1.18-.432s.36-.715.36-1.34c0-.527-.09-.95-.266-1.267-.178-.316-.53-.475-1.058-.475s-.879.175-1.052.525c-.172.351-.268.8-.288 1.347v.245h-1.526v-.39c0-.623.106-1.156.317-1.597a2.27 2.27 0 0 1 .957-1.023c.428-.24.958-.36 1.592-.36.643 0 1.176.12 1.598.36.422.24.74.584.95 1.03.212.446.317.982.317 1.606 0 .7-.151 1.262-.453 1.684a2.253 2.253 0 0 1-1.217.864c.355.106.655.288.9.548.245.259.434.588.569.986.134.398.201.862.201 1.39 0 .69-.097 1.293-.288 1.807a2.41 2.41 0 0 1-.921 1.195c-.423.283-.98.425-1.67.425Zm7.176-1.268c.365 0 .641-.105.828-.316.187-.211.317-.482.389-.814.072-.33.108-.674.108-1.03V4.106c0-.373-.034-.726-.1-1.057-.068-.331-.195-.598-.382-.8-.188-.2-.468-.302-.843-.302-.374 0-.657.101-.85.303-.191.201-.321.468-.388.799s-.101.684-.101 1.057v5.056c0 .355.036.698.108 1.03.072.33.206.602.403.813.197.211.473.317.828.317Zm0 1.268c-.662 0-1.207-.149-1.634-.447a2.635 2.635 0 0 1-.95-1.223c-.207-.519-.31-1.11-.31-1.772V4.121c0-.682.1-1.28.302-1.793a2.52 2.52 0 0 1 .943-1.203c.428-.288.977-.432 1.65-.432.671 0 1.218.144 1.64.432.423.288.735.69.937 1.203.201.513.302 1.111.302 1.793v5.025c0 .672-.103 1.268-.31 1.786-.206.518-.52.924-.943 1.217-.422.293-.964.439-1.627.439Z" fill="#4A4A4A"/><mask id="r" style="mask-type:alpha" maskUnits="userSpaceOnUse" x="39" y="6" width="8" height="1"><path fill-rule="evenodd" clip-rule="evenodd" d="M39.922 6h6.72v.8h-6.72V6Z" fill="#fff"/></mask><g mask="url(#r)"><path d="M39.922 6.4h6.72" stroke="#4A4A4A" stroke-width=".8"/></g><mask id="s" style="mask-type:alpha" maskUnits="userSpaceOnUse" x="39" y="46" width="8" height="2"><path fill-rule="evenodd" clip-rule="evenodd" d="M39.922 46.331h6.72v.8h-6.72v-.8Z" fill="#fff"/></mask><g mask="url(#s)"><path d="M39.922 46.73h6.72" stroke="#4A4A4A" stroke-width=".8"/></g><mask id="t" style="mask-type:alpha" maskUnits="userSpaceOnUse" x="39" y="86" width="8" height="2"><path fill-rule="evenodd" clip-rule="evenodd" d="M39.922 86.662h6.72v.8h-6.72v-.8Z" fill="#fff"/></mask><g mask="url(#t)"><path d="M39.922 87.062h6.72" stroke="#4A4A4A" stroke-width=".8"/></g><mask id="u" style="mask-type:alpha" maskUnits="userSpaceOnUse" x="39" y="126" width="8" height="2"><path fill-rule="evenodd" clip-rule="evenodd" d="M39.922 126.993h6.72v.8h-6.72v-.8Z" fill="#fff"/></mask><g mask="url(#u)"><path d="M39.922 127.393h6.72" stroke="#4A4A4A" stroke-width=".8"/></g><mask id="v" style="mask-type:alpha" maskUnits="userSpaceOnUse" x="39" y="167" width="8" height="2"><path fill-rule="evenodd" clip-rule="evenodd" d="M39.922 167.323h6.72v.8h-6.72v-.8Z" fill="#fff"/></mask><g mask="url(#v)"><path d="M39.922 167.723h6.72" stroke="#4A4A4A" stroke-width=".8"/></g><mask id="w" style="mask-type:alpha" maskUnits="userSpaceOnUse" x="39" y="207" width="8" height="2"><path fill-rule="evenodd" clip-rule="evenodd" d="M39.922 207.654h6.72v.8h-6.72v-.8Z" fill="#fff"/></mask><g mask="url(#w)"><path d="M39.922 208.054h6.72" stroke="#4A4A4A" stroke-width=".8"/></g><mask id="x" style="mask-type:alpha" maskUnits="userSpaceOnUse" x="39" y="247" width="8" height="2"><path fill-rule="evenodd" clip-rule="evenodd" d="M39.922 247.985h6.72v.8h-6.72v-.8Z" fill="#fff"/></mask><g mask="url(#x)"><path d="M39.922 248.385h6.72" stroke="#4A4A4A" stroke-width=".8"/></g><mask id="y" style="mask-type:alpha" maskUnits="userSpaceOnUse" x="39" y="288" width="8" height="2"><path fill-rule="evenodd" clip-rule="evenodd" d="M39.922 288.316h6.72v.799h-6.72v-.799Z" fill="#fff"/></mask><g mask="url(#y)"><path d="M39.922 288.715h6.72" stroke="#4A4A4A" stroke-width=".8"/></g><mask id="z" style="mask-type:alpha" maskUnits="userSpaceOnUse" x="39" y="328" width="8" height="2"><path fill-rule="evenodd" clip-rule="evenodd" d="M39.922 328.647h6.72v.799h-6.72v-.799Z" fill="#fff"/></mask><g mask="url(#z)"><path d="M39.922 329.047h6.72" stroke="#4A4A4A" stroke-width=".8"/></g><mask id="A" style="mask-type:alpha" maskUnits="userSpaceOnUse" x="39" y="368" width="8" height="2"><path fill-rule="evenodd" clip-rule="evenodd" d="M39.922 368.738h6.72v.8h-6.72v-.8Z" fill="#fff"/></mask><g mask="url(#A)"><path d="M39.922 369.138h6.72" stroke="#4A4A4A" stroke-width=".8"/></g><path fill-rule="evenodd" clip-rule="evenodd" d="M13.616 231.37H.656v-2.352H6.08v-2.64H.656v-2.368h12.96v2.368H7.76v2.64h5.856v2.352Zm.004-9.201H4.37v-2.096h.8c-.34-.32-.59-.666-.744-1.04a2.937 2.937 0 0 1-.232-1.136c0-.362.09-.68.272-.952.182-.272.47-.472.864-.6-.404-.352-.696-.726-.872-1.121a2.953 2.953 0 0 1-.264-1.215c0-.33.083-.623.248-.88.166-.256.41-.458.736-.608.325-.149.734-.224 1.224-.224h7.216v2.081H6.595c-.352 0-.594.058-.728.175-.132.118-.2.283-.2.497 0 .169.048.359.144.567.096.207.23.399.4.569h7.408v2.064H6.595c-.352 0-.594.061-.728.183a.654.654 0 0 0-.2.504c0 .171.048.357.144.56.096.203.23.394.4.576h7.408v2.096Zm-1.361-14.304c0-.246-.07-.426-.208-.544a1.094 1.094 0 0 0-.568-.224 6.018 6.018 0 0 0-.792-.048H7.299c-.288 0-.55.016-.784.048a1.133 1.133 0 0 0-.568.224c-.144.118-.216.298-.216.544 0 .246.072.426.216.544.144.117.333.196.568.233.234.038.496.055.784.055h3.392c.288 0 .552-.017.792-.055.24-.037.43-.116.568-.233.139-.118.208-.298.208-.544Zm1.504.016c0 .671-.125 1.228-.376 1.664-.25.437-.616.766-1.096.984-.48.22-1.061.328-1.744.328H7.443c-.683 0-1.264-.108-1.744-.328a2.34 2.34 0 0 1-1.096-.984c-.25-.436-.376-.993-.376-1.664 0-.672.125-1.23.376-1.672.25-.442.616-.773 1.096-.993.48-.217 1.061-.327 1.744-.327h3.104c.683 0 1.264.11 1.744.327.48.22.845.551 1.096.993.25.442.376 1 .376 1.672Zm-.034-7.152c0 .587-.096 1.048-.287 1.384-.193.336-.47.574-.832.712-.364.139-.796.208-1.297.208H5.81v.928H4.37v-.928H1.602v-2.192H4.37v-1.408h1.44v1.408h5.31c.322 0 .548-.069.682-.208.132-.138.2-.346.2-.624a3.46 3.46 0 0 0-.017-.344 17.42 17.42 0 0 0-.032-.328h1.664l.072.632c.026.24.04.494.04.76Zm-.11-2.64H4.37v-2.176h.928c-.32-.33-.579-.68-.776-1.048a2.486 2.486 0 0 1-.296-1.192c0-.384.093-.688.28-.912a1.65 1.65 0 0 1 .744-.496c.31-.106.645-.16 1.008-.16h7.36v2.176H6.69c-.278 0-.49.043-.64.128-.15.086-.224.251-.224.496 0 .15.042.312.128.488.085.176.192.35.32.52h7.344v2.176Zm-1.36-10.4c0-.245-.07-.426-.208-.544-.139-.117-.328-.192-.568-.224a6.018 6.018 0 0 0-.792-.048H7.299c-.288 0-.55.016-.784.048a1.124 1.124 0 0 0-.568.224c-.144.118-.216.299-.216.544 0 .246.072.428.216.544.144.118.333.195.568.232.234.038.496.056.784.056h3.392c.288 0 .552-.018.792-.056.24-.037.43-.114.568-.232.139-.116.208-.298.208-.544Zm1.504.016c0 .672-.125 1.228-.376 1.664-.25.438-.616.766-1.096.984-.48.22-1.061.328-1.744.328H7.443c-.683 0-1.264-.108-1.744-.328a2.334 2.334 0 0 1-1.096-.984c-.25-.436-.376-.992-.376-1.664 0-.672.125-1.229.376-1.672.25-.442.616-.773 1.096-.992.48-.218 1.061-.328 1.744-.328h3.104c.683 0 1.264.11 1.744.328.48.219.845.55 1.096.992.25.443.376 1 .376 1.672Zm0-6.991c0 .779-.208 1.418-.624 1.92-.416.501-1.024.859-1.824 1.072l-.624-1.616c.501-.128.886-.299 1.152-.512.267-.214.4-.491.4-.832 0-.256-.064-.448-.192-.576-.128-.128-.304-.192-.528-.192-.256 0-.488.077-.696.232-.208.154-.467.419-.776.792l-.944 1.12a5.748 5.748 0 0 1-1.08.984c-.368.251-.83.376-1.384.376-.501 0-.93-.115-1.288-.344a2.313 2.313 0 0 1-.832-.944 2.988 2.988 0 0 1-.296-1.336c0-.747.221-1.347.664-1.8.443-.453 1.021-.744 1.736-.872l.608 1.424a3.3 3.3 0 0 0-.712.232 1.574 1.574 0 0 0-.536.392.828.828 0 0 0-.208.56c0 .224.07.403.208.536.139.133.315.2.528.2.181 0 .368-.077.56-.232.192-.155.41-.376.656-.664l1.024-1.136c.213-.245.443-.48.688-.704.245-.224.52-.411.824-.56.304-.15.653-.224 1.048-.224.533 0 .981.12 1.344.36.363.24.637.565.824.976.187.411.28.867.28 1.368Zm-.034-6.56c0 .586-.096 1.048-.287 1.384-.193.336-.47.574-.832.712-.364.138-.796.208-1.297.208H5.81v.928H4.37v-.928H1.602v-2.192H4.37v-1.408h1.44v1.408h5.31c.322 0 .548-.07.682-.208.132-.138.2-.346.2-.624 0-.118-.006-.232-.017-.344a17.42 17.42 0 0 0-.032-.328h1.664l.072.632c.026.24.04.494.04.76Zm2.866-10.272c0 .661-.147 1.205-.44 1.632-.293.427-.698.768-1.215 1.024a6.762 6.762 0 0 1-1.793.568c-.677.123-1.405.2-2.184.232a60.072 60.072 0 0 1-4.8 0 16.184 16.184 0 0 1-2.208-.232c-.682-.123-1.279-.312-1.792-.568-.512-.256-.912-.597-1.2-1.024-.287-.427-.432-.971-.432-1.632h1.504c0 .331.171.595.512.792.342.197.811.344 1.408.44.598.096 1.294.157 2.09.184.793.027 1.644.04 2.55.04.928 0 1.787-.013 2.577-.04a15.424 15.424 0 0 0 2.063-.192c.587-.101 1.043-.248 1.369-.44.325-.192.493-.453.504-.784h1.487Zm-2.979-1.376H.656v-2.176h7.44l-3.728-2.384v-2.368l3.712 2.32 5.536-2.272v2.288l-4.56 1.68 1.024.736h3.536v2.176Zm1.415-10.736c0-.596-.058-1.044-.176-1.344-.117-.298-.33-.448-.64-.448a.717.717 0 0 0-.416.112c-.106.076-.194.208-.264.4-.069.192-.12.464-.152.816l-.144 1.584c.096.118.195.222.296.312.102.092.211.164.328.216a.87.87 0 0 0 .368.08c.266 0 .466-.128.6-.384.134-.256.2-.704.2-1.344Zm-5.712.128a.905.905 0 0 0-.104-.464.674.674 0 0 0-.335-.272 2.05 2.05 0 0 0-.585-.128 9.647 9.647 0 0 0-.815-.032c-.31 0-.582.012-.817.032a2.423 2.423 0 0 0-.592.12.694.694 0 0 0-.352.264c-.074.118-.111.278-.111.48 0 .192.037.35.111.472.075.124.19.214.344.272.154.06.35.102.585.128.233.028.511.04.832.04.298 0 .562-.01.791-.032.23-.02.422-.064.577-.128a.737.737 0 0 0 .351-.28c.08-.122.12-.28.12-.472Zm7.344.112c0 .63-.064 1.184-.192 1.664-.127.48-.325.854-.591 1.12-.267.268-.615.4-1.041.4-.288 0-.546-.06-.776-.184-.23-.122-.43-.29-.6-.504a3.515 3.515 0 0 1-.432-.688c-.096.352-.25.622-.464.808a1.12 1.12 0 0 1-.768.28c-.362 0-.672-.09-.928-.272a5.067 5.067 0 0 1-.816-.752c-.266.332-.6.58-1 .744-.4.166-.925.248-1.575.248-.704 0-1.3-.114-1.785-.344a2.367 2.367 0 0 1-1.096-1.008c-.246-.442-.368-.984-.368-1.624 0-.49.072-.9.217-1.232.143-.33.36-.602.647-.816-.128-.084-.287-.234-.48-.448a2.904 2.904 0 0 1-.48-.736l-.127-.288 1.168-.528c.032.118.085.276.159.472.075.198.154.392.24.584.086.192.16.342.224.448a3.79 3.79 0 0 1 .8-.24c.32-.064.624-.096.913-.096.65 0 1.215.102 1.696.304.479.204.85.515 1.111.936.262.422.393.968.393 1.64 0 .224-.02.444-.057.656a5.297 5.297 0 0 1-.136.592c.096.064.198.126.304.184.107.059.22.088.336.088.118 0 .214-.064.289-.192.073-.128.128-.34.16-.64l.191-1.952c.075-.756.313-1.316.713-1.68.4-.362.94-.544 1.623-.544.554 0 1.018.126 1.392.376.374.251.656.64.849 1.168.191.528.287 1.214.287 2.056Zm-.068-4.464h-1.504c0-.33-.165-.594-.496-.792-.33-.196-.79-.344-1.383-.44a17.576 17.576 0 0 0-2.072-.192 63.523 63.523 0 0 0-2.56-.048c-.918 0-1.774.016-2.568.048a19.14 19.14 0 0 0-2.08.184c-.592.091-1.056.236-1.392.432-.336.198-.51.468-.52.808H.53c0-.661.142-1.208.424-1.64.283-.432.683-.776 1.2-1.032a6.577 6.577 0 0 1 1.792-.56 16.966 16.966 0 0 1 2.193-.224 59.82 59.82 0 0 1 4.807 0c.78.032 1.51.107 2.193.224a6.594 6.594 0 0 1 1.8.56c.517.256.922.6 1.215 1.032.293.432.44.979.44 1.64Zm347.388 262.617-2.608-12.96h2.096l1.712 9.168 1.6-9.168h2.144l-2.608 12.96h-2.336Zm8-10.143.976-3.2h2.192l-1.904 3.2h-1.264Zm-1.808 12.654v-1.568c.373 0 .677-.02.912-.064.234-.041.405-.116.512-.222.106-.108.16-.256.16-.45 0-.137-.035-.357-.104-.655l-.232-.977-2.032-7.823h2.112l1.2 6.095 1.04-6.095h2.096l-2.16 9.617c-.118.542-.315.97-.592 1.278-.278.31-.624.53-1.04.664-.416.134-.902.2-1.456.2h-.416Zm7.984-12.719-1.408-2.881h1.6l.864 1.809.864-1.809h1.6l-1.408 2.881h-2.112Zm1.2 10.351c-.779 0-1.418-.207-1.92-.623-.501-.416-.859-1.024-1.072-1.824l1.616-.624c.127.502.299.886.512 1.152.214.267.491.4.832.4.256 0 .449-.064.576-.192.128-.128.192-.304.192-.528 0-.257-.077-.489-.232-.696-.154-.208-.42-.466-.792-.776l-1.12-.944a5.72 5.72 0 0 1-.984-1.08c-.251-.368-.376-.83-.376-1.384 0-.502.115-.93.344-1.288.229-.358.544-.634.944-.832.4-.196.846-.296 1.336-.296.747 0 1.347.222 1.8.664.454.442.744 1.022.872 1.736l-1.424.607a3.22 3.22 0 0 0-.232-.711 1.566 1.566 0 0 0-.392-.536.83.83 0 0 0-.56-.208.715.715 0 0 0-.537.208.733.733 0 0 0-.2.528c0 .18.078.368.234.56.154.191.375.411.663.655l1.137 1.025c.244.212.479.442.703.688.224.246.411.519.56.823.15.305.224.655.224 1.049 0 .534-.121.98-.36 1.344-.24.364-.565.636-.976.824a3.277 3.277 0 0 1-1.368.279Zm3.907-.143v-12.96h2.176v7.44l2.383-3.729h2.369l-2.32 3.713 2.272 5.536h-2.289l-1.679-4.56-.736 1.024v3.536h-2.176Zm10.37-1.472c.138 0 .27-.035.392-.104a1.53 1.53 0 0 0 .536-.504v-2.576c-.235.138-.456.277-.664.416a3.08 3.08 0 0 0-.544.455 1.786 1.786 0 0 0-.352.537c-.08.192-.12.416-.12.672 0 .342.067.611.2.808a.63.63 0 0 0 .552.296Zm-.8 1.616c-.417 0-.774-.109-1.072-.329a2.155 2.155 0 0 1-.688-.831 2.412 2.412 0 0 1-.24-1.048c0-.576.106-1.06.32-1.457a3.04 3.04 0 0 1 .848-.991 5.917 5.917 0 0 1 1.2-.696c.448-.197.902-.377 1.36-.536v-.8c0-.267-.018-.49-.056-.672a.781.781 0 0 0-.208-.416c-.102-.096-.258-.144-.472-.144a.708.708 0 0 0-.44.128.698.698 0 0 0-.24.36 2.173 2.173 0 0 0-.088.535l-.032.561-2.064-.08c.032-1.066.296-1.852.792-2.36.496-.506 1.25-.76 2.263-.76.929 0 1.603.256 2.025.768.421.512.632 1.204.632 2.08v4.272c0 .342.008.651.024.928.016.278.038.528.064.752.026.224.05.422.072.592h-1.952a28.455 28.455 0 0 0-.12-.728l-.104-.6a2.37 2.37 0 0 1-.608 1.016c-.299.304-.704.456-1.216.456Zm13.066 2.832c-.661 0-1.205-.148-1.632-.441a3.12 3.12 0 0 1-1.024-1.214 6.773 6.773 0 0 1-.568-1.794 15.85 15.85 0 0 1-.232-2.183 60.05 60.05 0 0 1 0-4.8 16.21 16.21 0 0 1 .232-2.209c.123-.681.312-1.278.568-1.791.256-.513.598-.913 1.024-1.2.427-.287.971-.432 1.632-.432v1.504c-.33 0-.594.171-.792.511-.197.342-.344.811-.44 1.408a16.979 16.979 0 0 0-.184 2.09c-.027.794-.04 1.644-.04 2.551 0 .927.013 1.786.04 2.577.027.789.091 1.476.192 2.063.102.586.248 1.043.441 1.369.191.325.453.493.783.504v1.487Zm4.144-2.832c-.715 0-1.288-.136-1.72-.409a2.332 2.332 0 0 1-.944-1.168c-.198-.506-.296-1.106-.296-1.8v-2.782c0-.716.098-1.324.296-1.824.197-.502.514-.886.951-1.153.438-.266 1.009-.4 1.713-.4.661 0 1.202.104 1.623.313.423.206.728.522.921.942.192.423.288.953.288 1.594v.768h-2.049v-.817c0-.319-.023-.574-.071-.76-.048-.187-.13-.321-.248-.4a.805.805 0 0 0-.464-.121.686.686 0 0 0-.464.153c-.119.102-.2.264-.249.487a4.765 4.765 0 0 0-.071.928v3.394c0 .597.064 1 .192 1.206.128.208.33.313.608.313.213 0 .375-.047.488-.145a.724.724 0 0 0 .224-.424c.037-.185.055-.412.055-.678v-.994h2.049v.881c0 .618-.099 1.146-.296 1.583a2.012 2.012 0 0 1-.928.985c-.422.218-.958.328-1.608.328Zm4.259-.144v-9.249h2.096v.8a2.919 2.919 0 0 1 2.176-.975c.362 0 .679.091.952.272.272.181.472.469.6.864.352-.405.725-.696 1.12-.872.394-.176.8-.264 1.216-.264.33 0 .623.082.88.247.256.166.458.412.608.736.149.325.224.734.224 1.224v7.217h-2.08v-7.024c0-.353-.059-.594-.176-.728-.118-.133-.283-.2-.497-.2-.17 0-.359.047-.568.143-.207.096-.397.23-.568.4v7.409h-2.064v-7.024c0-.353-.061-.594-.183-.728a.653.653 0 0 0-.504-.2c-.171 0-.357.047-.56.143-.203.096-.395.23-.576.4v7.409h-2.096Zm11.172 2.976v-1.505c.33 0 .594-.165.792-.495.196-.33.344-.791.44-1.383.096-.594.16-1.283.192-2.072.032-.791.048-1.643.048-2.562 0-.916-.016-1.772-.048-2.566a19.101 19.101 0 0 0-.184-2.081c-.091-.591-.235-1.055-.432-1.391-.197-.336-.467-.51-.808-.522v-1.487c.661 0 1.208.142 1.64.423.432.284.776.684 1.032 1.2.256.519.443 1.116.56 1.792.117.678.192 1.408.224 2.194a59.768 59.768 0 0 1 0 4.806c-.032.779-.107 1.51-.224 2.194a6.57 6.57 0 0 1-.56 1.8c-.256.516-.6.921-1.032 1.214-.432.293-.979.441-1.64.441ZM20.554 52.789v-9.648c-.01.01-.118.038-.324.086-.207.048-.44.096-.699.144l-.69.13a7.971 7.971 0 0 1-.318.058v-1.167c.164-.038.353-.091.57-.158.215-.067.436-.149.662-.245.225-.096.441-.216.648-.36a2.29 2.29 0 0 0 .525-.504h1.167v11.664h-1.541Zm3.829 0v-1.094l2.966-4.623c.221-.345.425-.666.612-.965.187-.297.341-.612.461-.943.12-.331.18-.713.18-1.145 0-.537-.086-.96-.26-1.267-.172-.307-.474-.46-.906-.46-.365 0-.648.1-.85.302-.202.201-.34.465-.418.792a4.582 4.582 0 0 0-.115 1.051v.389h-1.54v-.403c0-.701.093-1.304.28-1.808a2.35 2.35 0 0 1 .907-1.173c.418-.279.972-.418 1.664-.418.94 0 1.641.267 2.102.8.46.532.691 1.269.691 2.21 0 .499-.06.936-.18 1.31a5.17 5.17 0 0 1-.468 1.051c-.192.327-.403.663-.633 1.008l-2.679 4.09h3.687v1.296h-5.501Zm10.019-1.137c.365 0 .641-.106.828-.317a1.77 1.77 0 0 0 .389-.814 4.83 4.83 0 0 0 .108-1.03v-5.055c0-.373-.034-.726-.1-1.057-.068-.331-.195-.598-.382-.8-.188-.201-.468-.302-.843-.302-.374 0-.657.101-.85.303-.191.201-.321.468-.388.799s-.101.684-.101 1.057v5.056c0 .355.036.698.108 1.03.072.33.206.602.403.813.197.211.473.317.828.317Zm0 1.267c-.662 0-1.207-.149-1.634-.447a2.635 2.635 0 0 1-.95-1.224c-.207-.518-.31-1.108-.31-1.77v-5.026c0-.682.1-1.28.302-1.793a2.52 2.52 0 0 1 .943-1.203c.428-.288.977-.432 1.65-.432.671 0 1.218.144 1.64.432.423.288.735.69.937 1.203.201.513.302 1.111.302 1.793v5.025c0 .672-.103 1.267-.31 1.786-.206.518-.52.924-.943 1.217-.422.292-.964.439-1.627.439ZM21.6 92.32v-9.648c-.009.01-.117.038-.323.086-.207.048-.44.096-.699.144-.259.048-.49.091-.69.13a7.971 7.971 0 0 1-.318.058v-1.167a7.402 7.402 0 0 0 1.232-.403c.225-.096.441-.216.648-.36a2.29 2.29 0 0 0 .525-.504h1.166V92.32h-1.54Zm5.704 0v-9.648c-.01.01-.118.038-.324.086-.207.048-.44.096-.699.144-.259.048-.49.091-.69.13a7.971 7.971 0 0 1-.318.058v-1.167a7.402 7.402 0 0 0 1.232-.403c.225-.096.441-.216.648-.36a2.29 2.29 0 0 0 .525-.504h1.167V92.32h-1.541Zm6.966-1.138c.364 0 .64-.105.827-.316.188-.212.317-.483.39-.814.071-.331.107-.674.107-1.03v-5.055c0-.373-.033-.726-.1-1.057-.068-.332-.195-.598-.382-.8-.187-.201-.468-.302-.843-.302-.374 0-.657.1-.85.302-.191.202-.32.468-.388.8-.067.33-.1.684-.1 1.057v5.055c0 .356.035.699.107 1.03.072.331.207.602.403.814.197.21.473.316.828.316Zm0 1.268c-.663 0-1.208-.15-1.635-.448a2.635 2.635 0 0 1-.95-1.223c-.207-.518-.31-1.109-.31-1.771v-5.026c0-.681.1-1.279.302-1.792.202-.514.516-.915.944-1.203.427-.288.976-.432 1.648-.432.672 0 1.22.144 1.642.432.422.288.734.689.936 1.203.202.513.302 1.11.302 1.792v5.026c0 .672-.103 1.267-.31 1.786-.206.518-.52.924-.942 1.216-.423.293-.965.44-1.628.44Zm-14.216 41.001v-9.648c-.01.009-.118.038-.324.086-.207.048-.44.096-.699.144-.259.048-.49.091-.69.13a8.047 8.047 0 0 1-.318.057v-1.166c.164-.038.353-.091.57-.158.215-.067.436-.149.662-.245.225-.096.441-.216.648-.36a2.29 2.29 0 0 0 .525-.504h1.167v11.664h-1.541Zm6.966-1.138c.364 0 .64-.105.827-.317.188-.211.317-.482.39-.813.071-.331.107-.675.107-1.03v-5.055c0-.374-.033-.726-.1-1.058-.068-.331-.195-.597-.382-.799-.187-.201-.468-.302-.843-.302-.374 0-.657.101-.85.302-.191.202-.32.468-.388.799-.067.332-.1.684-.1 1.058v5.055c0 .355.035.699.107 1.03.072.331.207.602.403.813.197.212.473.317.828.317Zm0 1.267c-.663 0-1.208-.148-1.635-.447a2.637 2.637 0 0 1-.95-1.223c-.207-.518-.31-1.109-.31-1.771v-5.026c0-.681.1-1.279.302-1.793.202-.513.516-.914.944-1.202.427-.288.976-.432 1.648-.432.672 0 1.22.144 1.642.432.422.288.734.689.936 1.202.202.514.302 1.112.302 1.793v5.026c0 .672-.103 1.267-.31 1.785a2.61 2.61 0 0 1-.942 1.217c-.423.293-.965.439-1.628.439Zm7.445-1.267c.364 0 .64-.105.828-.317.187-.211.316-.482.389-.813.072-.331.107-.675.107-1.03v-5.055c0-.374-.033-.726-.1-1.058-.068-.331-.195-.597-.382-.799-.187-.201-.468-.302-.842-.302-.375 0-.658.101-.85.302-.192.202-.322.468-.389.799-.067.332-.1.684-.1 1.058v5.055c0 .355.035.699.108 1.03.072.331.206.602.403.813.197.212.472.317.828.317Zm0 1.267c-.663 0-1.208-.148-1.635-.447a2.637 2.637 0 0 1-.95-1.223c-.206-.518-.31-1.109-.31-1.771v-5.026c0-.681.101-1.279.303-1.793.201-.513.516-.914.943-1.202.427-.288.977-.432 1.649-.432s1.219.144 1.641.432c.423.288.735.689.936 1.202.202.514.303 1.112.303 1.793v5.026c0 .672-.103 1.267-.31 1.785-.206.519-.52.924-.943 1.217-.422.293-.965.439-1.627.439Zm-8.086 33.627c.336 0 .61-.084.82-.252a1.93 1.93 0 0 0 .49-.554v-1.728c0-.403-.038-.77-.115-1.102-.078-.331-.211-.595-.403-.792-.192-.196-.456-.295-.792-.295s-.603.101-.8.303a1.69 1.69 0 0 0-.417.784 4.304 4.304 0 0 0-.122 1.058c0 .462.021.889.064 1.282.044.394.159.708.346.944.187.235.497.352.929.352Zm0 5.904c-.605 0-1.121-.113-1.548-.338a2.246 2.246 0 0 1-.972-.986c-.221-.432-.336-.956-.346-1.57v-.13h1.541c0 .557.091.987.274 1.289.182.303.537.453 1.065.453.288 0 .528-.088.72-.266.192-.177.336-.451.432-.82.096-.37.144-.838.144-1.404v-1.772a1.59 1.59 0 0 1-.64.584c-.284.148-.637.223-1.059.223-.643 0-1.147-.142-1.512-.425-.366-.283-.622-.677-.77-1.181-.15-.505-.224-1.092-.224-1.764 0-.711.096-1.351.288-1.922.192-.571.502-1.025.93-1.361.426-.336.986-.504 1.677-.504.672 0 1.218.17 1.641.51.423.342.732.8.93 1.376.195.576.294 1.22.294 1.93v3.917c0 .749-.086 1.44-.259 2.073-.173.634-.465 1.14-.878 1.52-.413.379-.989.568-1.728.568Zm7.43-1.267c.364 0 .64-.106.828-.317.187-.211.316-.482.388-.813.072-.332.108-.675.108-1.03v-5.055a5.33 5.33 0 0 0-.1-1.058c-.068-.331-.195-.597-.382-.799-.187-.202-.468-.302-.843-.302-.374 0-.657.1-.85.302-.191.202-.32.468-.388.799a5.33 5.33 0 0 0-.1 1.058v5.055c0 .355.035.698.107 1.03.072.331.207.602.404.813.196.211.472.317.828.317Zm0 1.267c-.663 0-1.208-.149-1.635-.447a2.637 2.637 0 0 1-.95-1.223c-.207-.519-.31-1.109-.31-1.771v-5.026c0-.682.1-1.279.302-1.793.202-.513.517-.914.944-1.202.427-.288.977-.432 1.649-.432s1.219.144 1.641.432c.422.288.734.689.936 1.202.202.514.302 1.111.302 1.793v5.026c0 .672-.103 1.267-.31 1.785a2.61 2.61 0 0 1-.942 1.217c-.423.293-.965.439-1.627.439Zm-7.319 34.147c.326-.011.573-.111.741-.303.168-.191.286-.44.353-.742s.1-.615.1-.942c0-.48-.086-.888-.259-1.225-.172-.335-.484-.503-.936-.503-.45 0-.768.168-.95.503-.182.337-.274.745-.274 1.225 0 .327.034.64.101.942.067.302.19.551.367.742.178.192.43.292.756.303Zm0 5.759c.374 0 .662-.096.863-.286.202-.192.339-.453.41-.78a5 5 0 0 0 .109-1.093 4.16 4.16 0 0 0-.123-1.03 1.7 1.7 0 0 0-.424-.791c-.202-.206-.48-.31-.836-.31-.355 0-.636.1-.842.303a1.673 1.673 0 0 0-.44.783c-.086.323-.129.67-.129 1.045 0 .403.039.769.115 1.093.077.327.219.588.425.78.207.19.497.286.871.286Zm0 1.224c-.701 0-1.263-.138-1.685-.417a2.339 2.339 0 0 1-.915-1.187c-.187-.514-.28-1.118-.28-1.807 0-.394.033-.741.1-1.038.067-.297.166-.558.295-.784.13-.227.284-.424.461-.592.178-.168.372-.317.583-.452a3.002 3.002 0 0 1-.936-1.017c-.24-.416-.36-.946-.36-1.59 0-.615.096-1.148.288-1.599.192-.45.492-.799.9-1.043.408-.244.924-.368 1.548-.368s1.136.124 1.534.368c.398.244.694.593.886 1.043.192.451.288.984.288 1.599 0 .652-.118 1.185-.353 1.598-.235.414-.55.75-.943 1.009.21.135.405.284.583.452.177.168.331.365.46.592.13.226.231.487.303.784.072.297.108.644.108 1.038 0 .689-.094 1.293-.28 1.807-.188.512-.49.908-.908 1.187-.418.279-.977.417-1.678.417Zm7.31-1.266c.366 0 .642-.106.829-.317.187-.211.316-.482.388-.813.072-.331.108-.675.108-1.03v-5.056a5.32 5.32 0 0 0-.1-1.057c-.068-.331-.195-.597-.382-.799-.187-.201-.468-.301-.842-.301-.375 0-.658.1-.85.301-.192.202-.322.468-.389.799s-.1.684-.1 1.057v5.056c0 .355.035.699.107 1.03.072.331.207.602.404.813.197.211.473.317.828.317Zm0 1.267c-.662 0-1.207-.149-1.634-.448a2.628 2.628 0 0 1-.95-1.223c-.207-.517-.31-1.109-.31-1.771v-5.025c0-.682.101-1.28.303-1.793.201-.512.516-.913.943-1.203.427-.287.977-.431 1.649-.431s1.219.144 1.641.431c.423.29.735.691.936 1.203.202.513.303 1.111.303 1.793v5.025c0 .672-.104 1.267-.31 1.786a2.61 2.61 0 0 1-.943 1.216c-.423.293-.965.44-1.627.44Zm-8.13 39.402 2.103-10.455h-3.125v-1.209h4.666v.748l-2.16 10.916h-1.483Zm7.951-1.138c.365 0 .64-.106.828-.317.187-.211.317-.482.389-.813.072-.331.108-.675.108-1.03v-5.056c0-.373-.034-.726-.101-1.057-.067-.332-.194-.598-.382-.8-.187-.201-.468-.302-.842-.302-.374 0-.658.101-.85.302-.192.202-.321.468-.388.8a5.253 5.253 0 0 0-.101 1.057v5.056c0 .355.036.699.108 1.03.072.331.206.602.403.813.197.211.473.317.828.317Zm0 1.267c-.662 0-1.207-.149-1.634-.448a2.627 2.627 0 0 1-.95-1.223c-.207-.517-.31-1.109-.31-1.771v-5.025c0-.682.1-1.28.302-1.793.202-.514.516-.915.943-1.202.427-.288.977-.432 1.649-.432s1.22.144 1.642.432c.422.287.734.688.936 1.202.201.513.302 1.111.302 1.793v5.025c0 .673-.103 1.267-.31 1.786a2.61 2.61 0 0 1-.943 1.216c-.422.293-.965.44-1.627.44Zm-7.083 39.049c.345 0 .614-.098.806-.295.192-.196.329-.458.41-.786.082-.326.123-.68.123-1.066 0-.46-.022-.886-.065-1.28-.043-.393-.156-.708-.338-.944-.183-.236-.495-.352-.936-.352-.212 0-.404.039-.576.114a1.605 1.605 0 0 0-.75.678v1.743c0 .393.041.758.123 1.094.082.336.218.603.41.799.192.197.456.295.793.295Zm0 1.282c-.672 0-1.22-.17-1.642-.511-.422-.342-.732-.802-.929-1.384a6 6 0 0 1-.295-1.937v-3.931a7.7 7.7 0 0 1 .26-2.072c.172-.626.467-1.125.885-1.498.417-.374.99-.563 1.72-.563.605 0 1.117.111 1.534.331.418.223.74.543.965.966.226.423.343.935.353 1.54 0 .021.002.047.007.081a.645.645 0 0 1 .007.092h-1.555c0-.567-.091-.998-.274-1.295-.182-.297-.528-.448-1.037-.448-.278 0-.518.091-.72.267-.201.179-.352.45-.453.814-.1.366-.151.836-.151 1.412v1.771a1.7 1.7 0 0 1 .655-.584c.283-.149.631-.222 1.044-.222.643 0 1.147.139 1.512.416.365.28.624.67.777 1.174.154.505.23 1.097.23 1.78 0 .7-.095 1.337-.287 1.913-.192.578-.5 1.035-.922 1.377-.422.341-.984.511-1.684.511Zm7.271-1.267c.364 0 .64-.107.828-.317.187-.211.316-.483.388-.814.072-.331.108-.675.108-1.029v-5.056c0-.373-.033-.727-.1-1.058-.068-.331-.195-.598-.382-.799-.187-.202-.468-.303-.843-.303-.374 0-.657.101-.85.303-.191.201-.32.468-.388.799-.067.331-.1.685-.1 1.058v5.056c0 .354.035.698.107 1.029.072.331.207.603.404.814.196.21.472.317.828.317Zm0 1.267c-.663 0-1.208-.15-1.635-.448a2.632 2.632 0 0 1-.95-1.223c-.207-.518-.31-1.109-.31-1.772v-5.024c0-.683.1-1.28.302-1.793.202-.515.517-.915.944-1.203.427-.288.977-.432 1.649-.432s1.219.144 1.641.432c.422.288.734.688.936 1.203.202.513.302 1.11.302 1.793v5.024c0 .673-.103 1.268-.31 1.787-.206.517-.52.924-.942 1.216-.423.293-.965.44-1.627.44Zm-7.127 40.316c-.701 0-1.258-.133-1.67-.403-.413-.269-.709-.657-.886-1.166-.178-.51-.267-1.114-.267-1.814H25.4c0 .344.029.683.087 1.015.057.33.18.605.367.82.187.216.473.325.857.325.422 0 .724-.124.907-.367.182-.246.297-.577.345-.994.048-.418.072-.892.072-1.419s-.028-.977-.086-1.346c-.058-.369-.178-.653-.36-.85-.182-.196-.47-.294-.864-.294-.317 0-.586.098-.806.294a1.86 1.86 0 0 0-.49.671h-1.31v-6.252h5.025v1.541h-3.629l-.1 3.226c.192-.202.43-.36.712-.474.284-.116.608-.173.972-.173.634 0 1.13.148 1.49.445.36.299.615.706.764 1.226.149.517.223 1.112.223 1.784 0 .595-.043 1.151-.13 1.663a4.04 4.04 0 0 1-.453 1.34 2.3 2.3 0 0 1-.886.886c-.374.21-.85.316-1.425.316Zm7.088-1.252c.364 0 .64-.106.827-.317.188-.211.317-.482.39-.813.071-.332.107-.676.107-1.03v-5.056a5.33 5.33 0 0 0-.1-1.058c-.068-.331-.195-.597-.382-.799-.187-.201-.468-.302-.843-.302-.374 0-.657.101-.85.302-.191.202-.32.468-.388.799a5.33 5.33 0 0 0-.1 1.058v5.056c0 .354.035.698.107 1.03.072.331.207.602.403.813.197.211.473.317.828.317Zm0 1.267c-.663 0-1.208-.149-1.635-.448a2.632 2.632 0 0 1-.95-1.223c-.207-.518-.31-1.109-.31-1.771v-5.025c0-.682.1-1.28.302-1.793.202-.514.516-.915.944-1.202.427-.288.976-.432 1.648-.432.672 0 1.22.144 1.642.432.422.287.734.688.936 1.202.202.513.302 1.111.302 1.793v5.025c0 .672-.103 1.267-.31 1.786a2.61 2.61 0 0 1-.942 1.216c-.423.293-.965.44-1.628.44Zm-8.615 35.708h1.9v-5.299l-1.9 5.299Zm1.9 4.492v-3.124h-3.383v-1.614l3.038-6.926h1.815v7.172h1.31v1.368h-1.31v3.124h-1.47Zm6.722-1.137c.365 0 .641-.106.828-.317.187-.211.317-.482.389-.813.072-.331.108-.675.108-1.03v-5.056c0-.373-.034-.726-.1-1.057-.068-.332-.195-.598-.382-.8-.188-.201-.468-.302-.843-.302-.374 0-.657.101-.85.302-.191.202-.321.468-.388.8a5.326 5.326 0 0 0-.101 1.057v5.056c0 .355.036.699.108 1.03.072.331.206.602.403.813.197.211.473.317.828.317Zm0 1.267c-.662 0-1.207-.149-1.634-.448a2.627 2.627 0 0 1-.95-1.223c-.207-.517-.31-1.109-.31-1.771v-5.025c0-.682.1-1.28.302-1.793.202-.514.516-.915.943-1.202.428-.288.977-.432 1.65-.432.671 0 1.218.144 1.64.432.423.287.735.688.937 1.202.201.513.302 1.111.302 1.793v5.025c0 .672-.103 1.267-.31 1.786a2.61 2.61 0 0 1-.943 1.216c-.422.293-.964.44-1.627.44Z" fill="#54575C"/><path opacity=".3" d="M47.281 328.96h697.6M47.36 288.72h697.599M47.438 248.24h697.599m-697.92-40.32h697.6M47.36 167.52h697.599M46.64 127.28h697.601M47.281 87.04h697.6M47.281 46.8h697.6" stroke="#161616" stroke-width=".8" stroke-dasharray="3.2 3.2"/><path opacity=".3" d="M221.283 5.28v363.04" stroke="#161616" stroke-width=".8" stroke-dasharray="2.04 2.04"/><path opacity=".3" d="M104.884 3.6v365.52M163.041 4v365.12M337.439 4v365.44M279.283 3.92v365.52M395.525 3.92v365.52M453.681 3.36v366M511.759 3.68v365.68M569.923 3.92v365.44M628.08 4.24v364.88M686.244 4.24v364.88" stroke="#161616" stroke-width=".8" stroke-dasharray="2.05 2.05"/><path d="M744.403 369.12H46.883V3.36" stroke="#161616" stroke-width=".8" stroke-linecap="round"/><g filter="url(#B)"><path fill-rule="evenodd" clip-rule="evenodd" d="M458.948 265.28H332.947c-9.361 0-17.041-7.6-17.041-17.04 0-9.36 7.6-17.04 17.041-17.04h126.082c9.36 0 17.039 7.6 17.039 17.04-.079 9.36-7.679 17.04-17.12 17.04Z" fill="#fff"/></g><path fill-rule="evenodd" clip-rule="evenodd" d="M338.181 253.837c.474 0 .822-.102 1.046-.308.224-.205.375-.485.452-.844a5.65 5.65 0 0 0 .115-1.171v-7.161c0-.436-.039-.828-.115-1.172-.077-.345-.228-.618-.452-.817-.224-.197-.572-.297-1.046-.297-.449 0-.787.1-1.018.297-.23.199-.384.472-.46.817a5.396 5.396 0 0 0-.116 1.172v7.161c0 .423.036.811.106 1.171.07.359.221.639.451.844.231.206.576.308 1.037.308Zm0 2.092c-1.101 0-1.978-.205-2.63-.613-.653-.41-1.12-.999-1.402-1.767-.282-.768-.422-1.676-.422-2.728v-5.816c0-1.051.14-1.95.422-2.697.282-.751.749-1.322 1.402-1.72.652-.397 1.529-.595 2.63-.595 1.126 0 2.013.198 2.659.595.647.398 1.114.969 1.402 1.72.288.747.432 1.646.432 2.697v5.837c0 1.037-.144 1.936-.432 2.698-.288.761-.755 1.349-1.402 1.766-.646.415-1.533.623-2.659.623Zm9.426-9.119h1.075c.512 0 .912-.074 1.2-.221.288-.147.487-.385.596-.71.108-.327.163-.765.163-1.317 0-.562-.042-1.019-.125-1.371-.083-.353-.262-.611-.538-.778-.275-.166-.707-.251-1.296-.251h-1.075v4.648Zm-2.841 8.909v-15.554h4.569c.935 0 1.693.174 2.275.52.583.344 1.012.847 1.287 1.507.275.66.413 1.456.413 2.391 0 1.01-.173 1.827-.519 2.446a3.084 3.084 0 0 1-1.449 1.355c-.621.281-1.354.422-2.199.422h-1.536v6.913h-2.841Zm11.672 0V242.26h-2.477v-2.093h7.757v2.093h-2.439v13.459h-2.841Zm6.781-.001h2.803v-15.552h-2.803v15.552Zm5.164.001.269-15.552h2.937l2.208 10.77 2.304-10.77h2.842l.288 15.552h-2.112l-.231-10.811-2.208 10.811h-1.708l-2.247-10.849-.211 10.849h-2.131Zm16.199-16.628 1.172-3.841h2.631l-2.286 3.841h-1.517Zm-.249 11.232h2.112l-1.056-6.528-1.056 6.528Zm-3.591 5.395 3.111-15.552h3.034l3.11 15.552h-2.632l-.612-3.59h-2.708l-.634 3.59h-2.669Zm10.735.001v-15.552h2.841v13.593h3.763v1.959h-6.604Zm8.007 0v-15.552h1.978l3.782 8.869v-8.869h2.343v15.552h-1.882l-3.803-9.293v9.293h-2.418Zm11.135-16.628 1.171-3.841h2.63l-2.285 3.841h-1.516Zm-.596 16.627h2.804v-15.552h-2.804v15.552Zm12.255.001-3.13-15.552h2.516l2.055 11.001 1.919-11.001h2.573l-3.13 15.552h-2.803Zm9.999-16.628 1.173-3.841h2.63l-2.286 3.841h-1.517Zm-.249 11.232h2.112l-1.055-6.528-1.057 6.528Zm-3.59 5.395 3.111-15.552h3.033l3.111 15.552h-2.631l-.614-3.59h-2.708l-.634 3.59h-2.668Zm10.773.001v-15.552h2.822v6.508h3.168v-6.508h2.842v15.552h-2.842v-7.027h-3.168v7.027h-2.822Zm14.011-5.396h2.113l-1.057-6.528-1.056 6.528Zm-3.589 5.395 3.109-15.551h3.033l3.111 15.551h-2.63l-.615-3.59h-2.706l-.633 3.59h-2.669Z" fill="#8DCD3F"/><g filter="url(#C)"><path fill-rule="evenodd" clip-rule="evenodd" d="M316.637 184.48h-74.8c-9.36 0-17.04-7.6-17.04-17.04 0-9.36 7.6-17.04 17.04-17.04h74.8c9.36 0 17.04 7.6 17.04 17.04s-7.6 17.04-17.04 17.04Z" fill="#fff"/></g><path fill-rule="evenodd" clip-rule="evenodd" d="M244.672 174.962V159.41h1.977l3.783 8.871v-8.871h2.342v15.552h-1.881l-3.802-9.292v9.292h-2.419Zm13.262-5.395h2.112l-1.056-6.528-1.056 6.528Zm-3.59 5.395 3.11-15.552h3.034l3.11 15.552h-2.63l-.615-3.59h-2.707l-.633 3.59h-2.669Zm13.576-1.977h.864c.653 0 1.12-.116 1.401-.346.282-.231.454-.567.519-1.007.064-.442.096-.983.096-1.624v-5.951c0-.627-.046-1.133-.135-1.517-.089-.384-.276-.665-.556-.844-.282-.18-.737-.269-1.364-.269h-.825v11.558Zm-2.842 1.978V159.41h3.667c1.268 0 2.256.174 2.967.519a3.02 3.02 0 0 1 1.517 1.594c.3.717.451 1.625.451 2.726v5.683c0 1.127-.151 2.064-.451 2.812-.301.75-.8 1.307-1.498 1.672-.698.364-1.654.547-2.87.547h-3.783Zm12.997-.001-3.13-15.552h2.516l2.054 11.002 1.92-11.002h2.573l-3.13 15.552h-2.803Zm10.007-16.627 1.171-3.84h2.631l-2.285 3.84h-1.517Zm-.249 11.232h2.112l-1.056-6.528-1.056 6.528Zm-3.591 5.395 3.111-15.552h3.033l3.111 15.552h-2.631l-.614-3.59h-2.707l-.634 3.59h-2.669Zm10.766 0V159.41h2.822v6.509h3.168v-6.509h2.842v15.552h-2.842v-7.027h-3.168v7.027h-2.822Zm14.02-5.395h2.112l-1.056-6.528-1.056 6.528Zm-3.59 5.395 3.11-15.552h3.034l3.11 15.552h-2.63l-.615-3.59h-2.707l-.634 3.59h-2.668Z" fill="#FA571D"/><g filter="url(#D)"><path fill-rule="evenodd" clip-rule="evenodd" d="M194.641 63.52h-63.117c-9.36 0-17.04-7.6-17.04-17.04 0-9.36 7.6-17.04 17.04-17.04h63.117c9.36 0 17.04 7.6 17.04 17.04-.08 9.44-7.68 17.04-17.04 17.04Z" fill="#fff"/></g><path fill-rule="evenodd" clip-rule="evenodd" d="M137.298 52.094c.474 0 .823-.102 1.047-.308.223-.204.374-.485.451-.843a5.6 5.6 0 0 0 .115-1.172V42.61c0-.435-.038-.827-.115-1.172-.077-.345-.228-.617-.451-.816-.224-.198-.573-.298-1.047-.298-.449 0-.787.1-1.017.298-.231.199-.384.47-.461.816a5.403 5.403 0 0 0-.115 1.172v7.161c0 .423.035.812.105 1.172.071.358.221.639.451.843.231.206.576.308 1.037.308Zm0 2.093c-1.101 0-1.977-.205-2.63-.614-.653-.41-1.12-.998-1.402-1.767-.281-.767-.422-1.676-.422-2.727v-5.816c0-1.05.141-1.95.422-2.698.282-.75.749-1.322 1.402-1.72.653-.396 1.529-.594 2.63-.594 1.127 0 2.013.198 2.659.595.647.397 1.114.97 1.402 1.719.288.748.432 1.647.432 2.698v5.836c0 1.037-.144 1.936-.432 2.698-.288.762-.755 1.35-1.402 1.766-.646.415-1.532.623-2.659.623Zm9.426-2.208h1.076c.857 0 1.44-.208 1.747-.624.307-.416.461-1.06.461-1.93 0-.627-.074-1.135-.221-1.526a1.625 1.625 0 0 0-.73-.874c-.339-.192-.79-.288-1.353-.288h-.98v5.242Zm0-7.2h.96c.564 0 .999-.083 1.306-.25a1.35 1.35 0 0 0 .643-.767c.122-.346.183-.782.183-1.306 0-.55-.093-.976-.279-1.277-.185-.301-.464-.506-.835-.615-.371-.108-.845-.163-1.421-.163h-.557v4.378Zm-2.841 9.197V38.424h3.821c.691 0 1.315.064 1.872.192a3.822 3.822 0 0 1 1.44.643 2.9 2.9 0 0 1 .931 1.219c.217.513.326 1.158.326 1.94 0 .626-.086 1.164-.259 1.612a2.45 2.45 0 0 1-.758 1.066c-.333.263-.749.438-1.248.528.614.103 1.123.316 1.526.643s.704.752.902 1.277c.199.524.298 1.158.298 1.9 0 .743-.093 1.399-.278 1.968-.186.57-.461 1.044-.826 1.421a3.464 3.464 0 0 1-1.363.855c-.544.192-1.181.288-1.911.288h-4.473Zm10.695 0V38.424h6.528v1.996h-3.686v4.474h2.899v1.978h-2.899v5.145h3.725v1.959h-6.567Zm7.68 0v-1.824l4.185-11.77h-3.955v-1.958h6.816v1.459l-4.339 12.134h4.358v1.959h-7.065Zm8.719-.001h2.803V38.423h-2.803v15.552Zm6.758.001v-13.46h-2.477v-2.092h7.757v2.093h-2.439v13.459h-2.841Zm9.121-5.396h2.112l-1.056-6.528-1.056 6.528Zm-3.59 5.396 3.11-15.552h3.034l3.11 15.552h-2.63l-.615-3.59h-2.707l-.634 3.59h-2.668Z" fill="#F20F0F"/><g filter="url(#E)"><path fill-rule="evenodd" clip-rule="evenodd" d="M665.52 346h-74.8c-9.36 0-17.04-7.6-17.04-17.04 0-9.36 7.6-17.04 17.04-17.04h74.8c9.36 0 17.04 7.6 17.04 17.04-.08 9.36-7.68 17.04-17.04 17.04Z" fill="#fff"/></g><path fill-rule="evenodd" clip-rule="evenodd" d="M596.085 327.53h1.075c.511 0 .911-.075 1.2-.22.288-.148.485-.386.595-.712.109-.326.163-.764.163-1.316 0-.563-.042-1.02-.125-1.371-.084-.353-.262-.611-.537-.778-.276-.166-.708-.251-1.296-.251h-1.075v4.648Zm-2.843 8.909v-15.554h4.57c.934 0 1.693.173 2.276.52.581.344 1.011.847 1.285 1.508.276.659.414 1.456.414 2.39 0 1.01-.173 1.827-.519 2.446a3.091 3.091 0 0 1-1.449 1.356c-.621.28-1.354.421-2.198.421h-1.536v6.913h-2.843Zm14.345-1.881c.474 0 .822-.104 1.047-.309.223-.205.373-.485.451-.844.077-.359.115-.749.115-1.171v-7.162c0-.434-.038-.826-.115-1.17-.078-.346-.228-.619-.451-.819-.225-.196-.573-.296-1.047-.296-.449 0-.787.1-1.017.296-.232.2-.384.473-.462.819a5.46 5.46 0 0 0-.114 1.17v7.162c0 .422.035.812.105 1.171.071.359.221.639.451.844.23.205.576.309 1.037.309Zm0 2.091c-1.101 0-1.978-.205-2.63-.613-.653-.41-1.119-.998-1.402-1.767-.282-.767-.422-1.677-.422-2.728v-5.816c0-1.051.14-1.95.422-2.697.283-.751.749-1.322 1.402-1.72.652-.397 1.529-.595 2.63-.595 1.126 0 2.013.198 2.659.595.647.398 1.114.969 1.401 1.72.289.747.432 1.646.432 2.697v5.837c0 1.036-.143 1.936-.432 2.697-.287.763-.754 1.349-1.401 1.767-.646.415-1.533.623-2.659.623Zm9.426-2.188h.864c.653 0 1.12-.117 1.402-.346.282-.232.454-.568.518-1.007.064-.442.097-.983.097-1.625v-5.95c0-.626-.045-1.133-.134-1.518-.091-.382-.276-.664-.558-.843-.281-.18-.737-.269-1.363-.269h-.826v11.558Zm-2.841 1.978v-15.554h3.667c1.267 0 2.257.174 2.966.52a3.01 3.01 0 0 1 1.517 1.594c.301.716.451 1.626.451 2.726v5.683c0 1.127-.15 2.064-.451 2.811a3.14 3.14 0 0 1-1.497 1.673c-.698.363-1.655.547-2.871.547h-3.782Zm12.997 0-3.13-15.553h2.514l2.056 11.002 1.92-11.002h2.572l-3.129 15.553h-2.803Zm9.999-16.628 1.172-3.84h2.631l-2.286 3.84h-1.517Zm-.249 11.233h2.112l-1.056-6.528-1.056 6.528Zm-3.591 5.394 3.111-15.552h3.034l3.11 15.552h-2.631l-.613-3.589h-2.708l-.634 3.589h-2.669Zm10.774.001v-15.553h2.822v6.508h3.168v-6.508h2.842v15.553h-2.842v-7.028h-3.168v7.028h-2.822Zm14.011-5.395h2.113l-1.057-6.528-1.056 6.528Zm-3.59 5.394 3.11-15.552h3.034l3.11 15.552h-2.63l-.615-3.589h-2.706l-.634 3.589h-2.669Z" fill="#00AEEF"/><defs><linearGradient id="a" x1="744.404" y1="369.12" x2="744.404" y2="202.56" gradientUnits="userSpaceOnUse"><stop stop-color="#fff"/><stop offset="1" stop-color="#00ACED"/></linearGradient><linearGradient id="b" x1="744.321" y1="369.12" x2="744.321" y2="70.8" gradientUnits="userSpaceOnUse"><stop stop-color="#fff"/><stop offset="1" stop-color="#9BCD22"/></linearGradient><linearGradient id="c" x1="406.563" y1="168.32" x2="406.563" y2="3.44" gradientUnits="userSpaceOnUse"><stop stop-color="#fff"/><stop offset=".989" stop-color="#FF7C77"/></linearGradient><linearGradient id="d" x1="744.403" y1="303.44" x2="744.403" y2="3.44" gradientUnits="userSpaceOnUse"><stop stop-color="#fff"/><stop offset="1" stop-color="#FF9F58"/></linearGradient><filter id="B" x="310.906" y="228.2" width="170.164" height="44.08" filterUnits="userSpaceOnUse" color-interpolation-filters="sRGB"><feFlood flood-opacity="0" result="BackgroundImageFix"/><feColorMatrix in="SourceAlpha" values="0 0 0 0 0 0 0 0 0 0 0 0 0 0 0 0 0 0 127 0" result="hardAlpha"/><feOffset dy="2"/><feGaussianBlur stdDeviation="2.5"/><feColorMatrix values="0 0 0 0 0 0 0 0 0 0.0778586 0 0 0 0 0.184828 0 0 0 0.13 0"/><feBlend in2="BackgroundImageFix" result="effect1_dropShadow_0_15237"/><feBlend in="SourceGraphic" in2="effect1_dropShadow_0_15237" result="shape"/></filter><filter id="C" x="219.797" y="147.4" width="118.883" height="44.08" filterUnits="userSpaceOnUse" color-interpolation-filters="sRGB"><feFlood flood-opacity="0" result="BackgroundImageFix"/><feColorMatrix in="SourceAlpha" values="0 0 0 0 0 0 0 0 0 0 0 0 0 0 0 0 0 0 127 0" result="hardAlpha"/><feOffset dy="2"/><feGaussianBlur stdDeviation="2.5"/><feColorMatrix values="0 0 0 0 0 0 0 0 0 0.0778586 0 0 0 0 0.184828 0 0 0 0.13 0"/><feBlend in2="BackgroundImageFix" result="effect1_dropShadow_0_15237"/><feBlend in="SourceGraphic" in2="effect1_dropShadow_0_15237" result="shape"/></filter><filter id="D" x="109.484" y="26.44" width="107.195" height="44.08" filterUnits="userSpaceOnUse" color-interpolation-filters="sRGB"><feFlood flood-opacity="0" result="BackgroundImageFix"/><feColorMatrix in="SourceAlpha" values="0 0 0 0 0 0 0 0 0 0 0 0 0 0 0 0 0 0 127 0" result="hardAlpha"/><feOffset dy="2"/><feGaussianBlur stdDeviation="2.5"/><feColorMatrix values="0 0 0 0 0 0 0 0 0 0.0778586 0 0 0 0 0.184828 0 0 0 0.13 0"/><feBlend in2="BackgroundImageFix" result="effect1_dropShadow_0_15237"/><feBlend in="SourceGraphic" in2="effect1_dropShadow_0_15237" result="shape"/></filter><filter id="E" x="568.68" y="308.92" width="118.883" height="44.08" filterUnits="userSpaceOnUse" color-interpolation-filters="sRGB"><feFlood flood-opacity="0" result="BackgroundImageFix"/><feColorMatrix in="SourceAlpha" values="0 0 0 0 0 0 0 0 0 0 0 0 0 0 0 0 0 0 127 0" result="hardAlpha"/><feOffset dy="2"/><feGaussianBlur stdDeviation="2.5"/><feColorMatrix values="0 0 0 0 0 0 0 0 0 0.0778586 0 0 0 0 0.184828 0 0 0 0.13 0"/><feBlend in2="BackgroundImageFix" result="effect1_dropShadow_0_15237"/><feBlend in="SourceGraphic" in2="effect1_dropShadow_0_15237" result="shape"/></filter></defs></svg>